<svg version="1.1" xmlns="http://www.w3.org/2000/svg" style="display: block;" viewBox="0 0 2048 2048" width="1024" height="1024" preserveAspectRatio="none">
<defs>
	<linearGradient id="Gradient1" gradientUnits="userSpaceOnUse" x1="972.219" y1="873.989" x2="974.651" y2="875.908">
		<stop class="stop0" offset="0" stop-opacity="0" stop-color="rgb(244,241,243)"/>
		<stop class="stop1" offset="1" stop-opacity="0.0627451" stop-color="rgb(235,232,234)"/>
	</linearGradient>
	<linearGradient id="Gradient2" gradientUnits="userSpaceOnUse" x1="687.573" y1="1016.01" x2="691.956" y2="1023.03">
		<stop class="stop0" offset="0" stop-opacity="0" stop-color="rgb(238,233,237)"/>
		<stop class="stop1" offset="1" stop-opacity="0.0313725" stop-color="rgb(230,229,230)"/>
	</linearGradient>
	<linearGradient id="Gradient3" gradientUnits="userSpaceOnUse" x1="1557.98" y1="923.185" x2="1620.83" y2="965.675">
		<stop class="stop0" offset="0" stop-opacity="0" stop-color="rgb(255,255,255)"/>
		<stop class="stop1" offset="1" stop-opacity="0.0352941" stop-color="rgb(255,255,255)"/>
	</linearGradient>
	<linearGradient id="Gradient4" gradientUnits="userSpaceOnUse" x1="650.057" y1="1327.68" x2="646.085" y2="1335.94">
		<stop class="stop0" offset="0" stop-opacity="0" stop-color="rgb(244,241,241)"/>
		<stop class="stop1" offset="1" stop-opacity="0.0745098" stop-color="rgb(221,221,224)"/>
	</linearGradient>
</defs>
<path transform="translate(0,0)" fill="rgb(0,0,0)" d="M 1003.49 733.874 L 1004.3 732.697 C 1015.29 716.995 1031.57 715.612 1046.46 727.046 C 1056.88 719.235 1062.88 718.187 1072.23 727.858 C 1099.84 718.663 1091.99 736.174 1102.81 739.103 C 1117.22 743.004 1127.32 730.295 1136.81 760.116 C 1151.51 764.914 1154.49 768.359 1155.11 784.224 C 1179.63 797.361 1165.54 799.172 1169.37 815.709 C 1172.43 828.946 1181.26 817.512 1174.07 842.76 C 1188.41 859.411 1184.34 873.502 1172.52 889.795 C 1174.65 912.025 1172.95 921.276 1151.53 930.314 C 1148.77 947.7 1141.88 949.791 1125.84 949.424 C 1118.28 963.458 1110.76 964.389 1096.03 963.648 C 1096.19 971.326 1096.88 979.887 1097.34 987.62 C 1110.85 989.122 1109.34 993.787 1118.86 996.737 C 1153.16 1007.37 1193.62 1021.67 1212.43 1055.45 C 1242.52 1109.51 1266.77 1175.66 1272.82 1237.53 C 1274.71 1256.8 1267.89 1273.92 1255.08 1288.02 C 1259.58 1288.15 1261.99 1288.2 1266.44 1287.71 C 1268.22 1283.82 1266.61 1279.57 1267.19 1276.26 C 1270.42 1257.76 1316.17 1262.44 1328.93 1263.08 C 1326.96 1241.53 1330.21 1230.02 1335.66 1209.36 C 1337.97 1204.09 1341.49 1189.62 1344.33 1182.1 L 1346.03 1177.08 L 1349.74 1164.76 C 1352.2 1159.76 1353.01 1157.03 1354.63 1151.81 C 1355.54 1150.22 1356.75 1146.58 1357.44 1144.7 L 1360.81 1135.81 C 1388.48 1064.3 1418.83 999.281 1499.21 979.11 C 1506.6 977.256 1514.04 975.375 1521.42 973.479 C 1508.63 973.35 1497.68 974.155 1486.43 966.429 C 1467.47 953.407 1465.24 915.818 1461.42 893.263 C 1438.76 884.148 1433.84 852.863 1459.12 842.572 C 1458.84 828.647 1460.99 817.603 1463.92 804.003 C 1457.69 798.845 1453.31 794.993 1450.53 788.297 C 1444.49 773.747 1445.88 759.026 1460.45 751.011 C 1463.43 749.368 1464.94 741.416 1471.28 741.205 C 1482.05 740.845 1489.07 749.111 1499.84 748.675 C 1506.33 748.426 1513.6 745.508 1519.78 743.472 C 1554.99 731.877 1590.92 729.686 1606.17 770.354 C 1611.84 772.65 1614.18 773.769 1619.55 776.719 C 1622.51 780.248 1626.85 784.877 1628.19 789.202 C 1634.32 806.832 1632.62 824.081 1628.3 841.916 C 1627.8 843.965 1623.97 859.205 1624.14 860.028 C 1628.43 881.204 1628.39 891.365 1605.14 902.448 C 1605.89 923.486 1606.99 945.818 1610.3 966.655 C 1690.6 975.758 1726.86 994.885 1762.45 1067.91 C 1831.83 1070.1 1858.37 1065.46 1849.25 1146.15 C 1848.3 1154.51 1847.06 1183.97 1847.88 1192.74 C 1847.35 1198.87 1846.18 1209.22 1846.13 1215.16 C 1845.44 1223.22 1843.48 1252.29 1842.02 1258.15 L 1842.15 1260.79 C 1841.16 1269.83 1840.33 1278.9 1839.64 1287.97 C 1853.78 1287.41 1909.99 1285.09 1920.21 1288.84 L 1921.2 1290.06 C 1916.02 1293.92 1804.77 1293.65 1790.47 1293.73 C 1783.39 1299.04 1780.05 1301.82 1771.77 1305.16 C 1764.72 1325.78 1759.94 1347.76 1754.28 1368.83 C 1751.42 1379.46 1749.34 1391.25 1743.88 1400.9 C 1741.43 1405.24 1738.43 1407.85 1734 1410.09 C 1730.59 1411.81 1726.75 1411.91 1723 1412.14 C 1691.66 1414.07 1660.22 1413.48 1628.86 1414.38 C 1605.71 1415.04 1476.32 1421.42 1464.14 1417.71 C 1452.54 1414.17 1397 1374.47 1392.29 1364.34 C 1391.34 1362.31 1391.41 1360.82 1391.89 1358.7 C 1394.8 1354.07 1400.03 1351.89 1405.32 1351.52 C 1422.5 1350.31 1440.16 1350.57 1457.4 1349.98 C 1464.01 1349.26 1469.53 1349.05 1476.18 1348.83 L 1481.1 1331.32 C 1475.85 1330.75 1470.57 1329.87 1465.34 1329.06 C 1434.95 1322.73 1403.79 1315.54 1374.39 1305.5 C 1377.61 1316.52 1379.65 1328.57 1373.53 1339.19 C 1369.98 1345.24 1364.08 1349.55 1357.23 1351.07 C 1354.55 1351.66 1351.84 1352.11 1349.12 1352.41 C 1348.38 1357.42 1347.26 1369.54 1342.8 1372.16 C 1328.35 1380.36 1307.66 1379.41 1291.55 1377.08 C 1276 1374.82 1267.97 1370.79 1267.75 1354.04 C 1267.48 1334.14 1267.26 1314.11 1267.09 1294.23 C 1262.99 1294.07 1251.38 1293.54 1247.8 1294.37 C 1233.81 1297.6 1226.71 1301.78 1211.95 1302.06 C 1211.89 1313.01 1211.63 1324.78 1211.83 1335.68 C 1211.54 1352.53 1214.58 1373.93 1202.83 1385.32 C 1190.1 1391.27 1146.76 1389.03 1130.77 1388.94 L 1046.61 1389.16 L 957.643 1390.34 C 940.872 1390.64 923.855 1391.34 907.147 1390.83 C 895.181 1390.47 886.918 1381.45 885.519 1369.94 C 884.278 1359.73 884.451 1349.67 884.151 1339.43 C 883.677 1324.58 883.045 1309.75 882.254 1294.91 C 856.291 1294.48 827.056 1295.35 800.938 1295.86 C 801.014 1317.32 801.051 1340.25 799.524 1361.72 C 797.987 1383.33 754.339 1379.75 739.749 1377.44 C 721.811 1374.6 724.844 1368.6 719.316 1355.03 C 718.812 1353.8 695.865 1346.46 694.875 1339.49 C 689.954 1330.63 689.785 1320.02 692.15 1310.43 C 693.975 1304.3 695.491 1302.4 698.904 1297.16 C 669.006 1296.96 639.009 1297.22 609.128 1298.03 C 597.735 1298.33 580.892 1297.38 570.261 1298.41 L 570.157 1300.16 C 571.564 1301.53 573.266 1302.13 575.245 1302.11 C 600.843 1301.82 619.914 1296.77 643.182 1310.37 C 644.949 1311.15 647.864 1312.62 649.619 1312.96 L 651.295 1315.18 C 662.639 1326.22 679.005 1342.81 671.914 1354.75 C 670.037 1357.9 653.066 1361.06 648.677 1361.96 C 620.669 1356.14 626.058 1348.07 594.81 1352.27 C 585.886 1352.22 580.13 1352.27 571.387 1351 L 561.258 1348.41 C 562.901 1354.5 564.541 1361.44 566.926 1367.16 L 567.762 1369.43 C 584.012 1373.31 625.541 1368.82 643.927 1373.81 C 653.059 1384.38 644.675 1389.49 636.104 1396.16 L 629.184 1401.88 C 623.309 1406.39 615.661 1411.9 610.114 1416.55 C 603.929 1421.05 595.747 1426.65 589.947 1431.38 C 583.911 1434.51 577.567 1437.69 570.565 1437.77 C 515.13 1438.41 459.259 1433.39 403.781 1432.88 L 402.297 1432.89 C 395.63 1431.71 379.558 1431.87 372.136 1431.89 C 366.744 1430.89 357.375 1430.9 351.591 1430.74 C 333.644 1428.75 318.493 1434.35 310.445 1412.31 C 305.876 1399.79 302.816 1387.17 299.268 1374.35 C 292.457 1350.15 285.86 1325.88 279.477 1301.56 C 251.704 1303.1 217.544 1301.16 189.218 1301.92 C 180.166 1302.16 140.104 1302.46 132.858 1301.51 L 131.861 1300.14 L 132.51 1298.44 C 139.467 1295.36 170.948 1296.41 180.564 1296.44 L 180.018 1291.29 C 175.474 1249.78 172.179 1208.14 170.136 1166.42 C 165.436 1081.04 167.749 1084.08 250.502 1079.75 C 268.696 1078.93 286.861 1077.54 304.968 1075.59 C 315.401 1052.58 324.763 1035.52 343.438 1018.34 C 316.164 996.917 322.57 984.512 337.93 958.774 C 337.742 951.25 337.274 944.558 338.309 937.134 C 338.373 912.388 376.379 907.229 381.233 889.099 C 387.755 864.746 385.127 855.143 397.632 831.026 L 396.798 831.845 L 395.421 833.225 C 374.594 853.795 386.154 864.013 376.338 885.954 C 370.324 899.394 352.982 903.404 342.93 914.761 C 334.717 924.039 336.17 931.975 333.025 936.747 L 332.202 936.72 C 324.732 928.287 337.754 909.819 344.398 904.871 C 358.007 894.735 368.817 895.47 374.382 876.974 L 374.719 875.815 C 375.925 871.557 376.823 856.626 377.421 851.115 C 384.525 833.199 391.618 831.782 404.823 819.381 C 409.922 814.592 417.672 805.936 422.644 800.528 C 430.345 794.907 433.995 791.825 442.451 786.633 C 452.929 781.356 459.164 779.352 470.403 776.008 C 479.679 773.981 489.138 772.914 498.632 772.826 C 525 774.372 539.833 779.661 562.852 793.504 C 572.068 799.046 580.02 804.025 587.259 812.279 C 600.38 827.393 607.037 847.058 605.795 867.034 C 605.202 875.462 603.574 881.55 601.136 889.557 C 608.481 902.984 606.84 917.089 594.764 926.933 C 596.488 933.836 606.793 955.545 610.886 959.838 C 611.102 962.92 611.53 968.169 611.256 971.135 C 610.533 978.974 606.348 986.892 607.468 994.713 L 605.733 996.366 L 603.989 996.088 C 598.714 988.139 610.201 970.729 604.405 956.258 L 602.475 955.123 C 600.921 958.846 602.553 964.81 601.341 967.398 C 585.128 1002.02 622.281 1029.35 562.119 1034.63 C 556.844 1035.1 548.542 1037.55 543.294 1038.22 C 548.365 1043.31 557.613 1055.83 561.09 1062.15 L 571.155 1081.02 C 583.699 1108.97 597.038 1139.39 610.896 1166.53 C 627.477 1142.17 640.684 1115 657.466 1090.76 C 659.738 1087.48 663.717 1087.86 667.415 1087.41 C 675.837 1070.38 671.006 1054.83 674.1 1036.68 C 677.798 1014.97 691.336 1001.81 708.452 989.563 C 711.87 976.167 719.255 920.731 724.744 915.715 C 738.507 913.89 797.3 924.226 814.205 925.946 C 815.4 926.068 817.411 927.514 818.414 928.256 C 820.147 932.412 804.654 997.547 802.19 1008.21 C 796.953 1030.88 792.75 1056.82 787.323 1079.2 C 773.481 1078.16 757.631 1074.86 743.733 1074.79 C 741.4 1074.78 740.633 1076.8 739.136 1078.84 L 733.712 1084.72 C 720.405 1093.36 717.904 1096.53 712.69 1111.19 C 714.814 1113.61 717.148 1116.07 718.901 1118.75 C 708.083 1164.04 666.396 1254.27 627.707 1283.22 C 601.099 1303.13 570.829 1277.24 552.442 1257.33 C 549.555 1253.74 546.637 1250.39 543.626 1246.91 C 540.882 1242.41 537.219 1237.55 534.122 1233.2 C 532.918 1237.07 531.964 1241.12 530.97 1245.05 C 539.112 1258.92 541.082 1271.26 544.835 1286.8 C 565.353 1294.95 594.253 1291.76 616.821 1291.42 C 648.067 1290.95 686.121 1293.59 716.668 1289.76 C 716.637 1285.48 715.946 1274.18 719.446 1271.76 C 737.375 1259.4 778.587 1259.67 796.983 1270.85 C 800.892 1273.23 800.874 1285.43 801.092 1289.91 C 822.495 1289.49 842.448 1289.76 864.173 1288.93 C 855.358 1283.29 846.663 1276.67 843.157 1266.31 C 830.037 1227.58 859.272 1160.32 874.213 1124.4 C 892.122 1085.52 911.528 1035.88 954.659 1018.94 C 977.177 1010.1 999.096 1001.09 1021.16 992.429 C 1021.92 989.299 1021.63 988.101 1021.36 984.948 C 1016.74 981.384 1002.4 983.157 992.629 974.606 C 973.699 958.043 969.89 934.496 967.061 911.69 C 957.496 910.035 948.347 907.759 948.901 896.33 C 949.106 892.123 937.057 886.555 933.87 883.641 C 931.199 878.086 932.33 872.262 933.291 866.381 C 932.499 865.876 931.714 865.362 930.935 864.837 C 915.264 854.219 914.577 840.546 925.236 826.137 C 913.978 806.314 916.8 792.619 938.035 782.253 C 938.038 764.482 941.892 761.774 958.392 758.659 C 962.375 733.421 981.053 727.217 1003.49 733.874 z M 628.191 1321.84 C 637.047 1325.77 643.568 1329.25 651.681 1334.59 C 656.796 1337.96 664.582 1346.05 668.964 1347.75 C 667.464 1337.2 645.521 1324.66 636.663 1320.28 L 633.119 1315.97 L 634.459 1313.79 L 634.959 1310.39 L 632.053 1310.67 C 614.528 1304.43 590.541 1307.56 571.257 1308.2 C 567.533 1318.77 564.143 1332.34 560.101 1342.03 C 582.69 1350.04 593.021 1345.32 615.736 1345.63 C 625.543 1345.77 641.636 1356.29 649.605 1356.5 L 650.506 1355.72 C 645.354 1345.32 622.418 1344.3 619.301 1334.46 L 620.573 1333.07 C 632.501 1332.87 652.678 1353.13 660.958 1352.09 C 659.438 1340.93 634.184 1333.69 627.564 1325.75 C 627.42 1323.2 627.206 1324.12 628.191 1321.84 z M 253.982 1295.99 C 262.323 1295.87 269.563 1295.82 277.897 1294.91 C 256.563 1222.9 260.921 1229.54 333.561 1233.95 C 332.138 1220.84 318.074 1147.76 321.574 1140.86 L 323.407 1140.44 C 324.988 1142.01 325.806 1143.93 326.039 1146.16 C 329.116 1175.53 333.697 1205.11 339.864 1233.98 C 370.101 1235.36 400.36 1236.19 430.626 1236.47 C 426.623 1204.17 418.696 1171.05 416.506 1138.13 C 415.94 1129.62 411.866 1116.41 413.544 1108.33 L 415.562 1108.17 C 420.234 1113.93 423.804 1156.9 425.074 1166.72 C 428.109 1190.21 431.906 1213.6 436.46 1236.84 C 458.785 1238.39 481.181 1238.73 503.541 1239.56 C 511.611 1239.87 517.811 1240.02 525.66 1241.91 C 531.941 1213.58 552.457 1194.24 547.012 1161.19 C 546.084 1155.56 544.29 1126.88 546.865 1123.33 L 548.011 1123.46 C 550.616 1127.88 550.443 1131.63 550.975 1136.5 C 555.133 1174.54 553.859 1192.29 537.326 1226.37 C 539.29 1229.17 540.879 1231.6 542.666 1234.52 C 549.354 1243.36 568.445 1268.52 577.822 1272.59 C 600.732 1292.02 626.168 1283.5 642.574 1261.11 C 672.879 1219.75 696.022 1169.16 712.988 1120.83 C 701.998 1111 677.018 1099.46 663.341 1092.79 C 656.099 1103.17 647.841 1118.3 641.087 1129.54 L 601.121 1196.39 L 598.727 1196.68 L 600.435 1197.36 L 598.588 1197.25 L 598.731 1199.12 L 599.942 1197.99 L 598.442 1197.72 C 598.852 1187.7 602.789 1181.1 607.275 1172.29 C 584.764 1134.55 569.375 1077.99 540.42 1043.99 C 534.735 1037.31 524.782 1031.74 517.144 1027.31 C 514.34 1041.66 501.579 1053.97 486.432 1053.18 C 473.216 1052.48 464.331 1045.19 455.748 1036.09 C 431.522 1043.38 420.654 1042.31 400.512 1026.39 C 379.986 1033.79 367.257 1036.41 350.088 1019.83 C 293.338 1073.98 263.697 1218.74 253.982 1295.99 z M 1471.79 1412.73 C 1478.49 1413.64 1489.2 1413.17 1496.21 1412.91 C 1509.76 1413.13 1526.67 1412.01 1540.43 1411.51 C 1563.04 1410.73 1585.66 1410.09 1608.28 1409.59 L 1676.34 1407.73 C 1694.94 1407.26 1713.47 1407.74 1731.73 1404.44 C 1744.2 1394.13 1747.05 1373.27 1751.09 1358.03 C 1756.42 1338.29 1761.65 1318.53 1766.77 1298.73 C 1772.8 1275.63 1780.23 1251.58 1784.11 1228.04 C 1784.77 1220.15 1777.46 1217.12 1771.14 1217.17 C 1692.72 1217.78 1613.82 1221.78 1535.43 1222.07 C 1515.99 1224.31 1513.52 1230.01 1508.08 1247.97 C 1504.62 1269.43 1465.94 1401.89 1467.59 1409.67 C 1469.41 1411.75 1469.23 1411.82 1471.79 1412.73 z M 372.664 1240.85 C 364.825 1240.32 357.932 1240.19 350.065 1240.12 C 338.126 1239.8 281.321 1234.68 274.814 1240.84 C 272.252 1243.26 271.191 1246.77 271.417 1250.22 C 272.221 1262.51 280.453 1284.65 284.039 1297.44 C 292.96 1329.25 301.207 1361.3 310.613 1392.97 L 311.518 1395.68 C 314.042 1407.46 318.684 1423.81 333.429 1424.4 C 352.416 1425.15 371.48 1426.04 390.469 1426.64 C 450.5 1428.53 510.943 1432.87 570.9 1432.25 C 573.051 1432.23 575.371 1429.62 576.274 1427.73 C 576.016 1421.85 571.224 1406.36 569.42 1399.97 C 564.883 1384.07 560.44 1368.15 556.089 1352.2 C 547.953 1321.88 540.729 1291.32 532.317 1261.09 C 529.94 1252.54 524.38 1247 515.395 1246.08 C 499.412 1244.44 483.101 1244.39 467.011 1243.86 L 372.664 1240.85 z M 1103.7 1042.09 L 1099.48 1048.79 C 1095.43 1054.56 1092.03 1061.83 1083.97 1060.81 L 1080.26 1057.87 C 1073.88 1051.39 1070.21 1048.03 1062.95 1042.5 C 1063.06 1050.41 1063.29 1058.54 1063.27 1066.42 C 1063.45 1075.24 1063.1 1096.68 1064.04 1104.27 L 1064.03 1104.82 C 1063.84 1118.04 1063.2 1137.34 1064.07 1150.34 C 1064 1153.9 1063.87 1157.49 1064.07 1161.05 C 1068.3 1160.93 1074.61 1160.56 1078.68 1160.83 L 1089.81 1160.94 C 1117.1 1160.21 1144.4 1160.11 1171.69 1160.63 C 1169.63 1151.16 1163.87 1131.95 1164.95 1123.38 L 1166.17 1122.88 C 1170.55 1126.91 1171.16 1133.89 1172.38 1139.78 C 1175.93 1137.41 1178.57 1134.49 1182.33 1137.12 C 1182.34 1142.55 1178.45 1144.26 1174.33 1146.95 C 1174.91 1151.44 1175.72 1156.11 1176.43 1160.59 C 1179.8 1160.45 1183.17 1160.36 1186.54 1160.35 C 1220.14 1160.5 1214.46 1186.87 1213.75 1211.29 C 1219.85 1211.97 1225.28 1211.94 1230 1216.01 L 1229.28 1217.13 C 1223.48 1218.82 1219.69 1217.52 1213.47 1216.73 C 1212.54 1242.79 1212.49 1271.03 1211.97 1297.32 C 1266.79 1289.12 1273.48 1255.3 1262.77 1206.64 C 1256.83 1179.64 1249.8 1154.1 1239.17 1128.45 C 1235.16 1126.48 1236.9 1129.9 1231.88 1129.15 C 1230.42 1126.43 1230.96 1127.86 1230.98 1124.5 C 1231.72 1123.27 1234.58 1118.49 1234.42 1117.64 C 1232.12 1105.15 1216.22 1074.31 1210.64 1064.31 C 1191.64 1030.26 1158.27 1013.97 1121.84 1004.58 C 1117.76 1017.94 1111.64 1030.6 1103.7 1042.09 z M 882.121 1284.96 C 881.998 1263.98 880.499 1224.88 878.964 1204.12 C 872.403 1211.28 866.857 1223.29 860.768 1227.65 L 859.553 1227.03 C 859.879 1218.22 872.298 1203.22 878.877 1197.54 C 878.829 1196.55 878.788 1195.57 878.755 1194.58 C 878.037 1172.34 880.247 1162.51 904.232 1161.83 C 912.433 1155.37 918.845 1149.07 927.797 1142.28 C 927.921 1135.71 928.834 1128.86 929.548 1122.3 C 926.346 1119.87 922.497 1117.46 921.392 1113.64 C 927.96 1110.99 926.615 1118.3 934.355 1111.04 L 935.8 1111.91 C 936.747 1118.85 932.802 1134.5 931.122 1141.98 C 947.333 1132.58 959.604 1119.82 978.603 1113.65 C 989.153 1109.02 1000.77 1109.44 1011.64 1106.59 C 1016.35 1105.35 1020.99 1090.21 1028.71 1092.56 C 1030.15 1098.15 1026.49 1101.37 1023.27 1105.67 C 1028.85 1105.8 1034.18 1105.74 1039.68 1106.68 C 1043.61 1106.88 1046.61 1106.59 1049.93 1108.57 C 1053.22 1113.08 1051.53 1117.3 1050.38 1122.39 C 1045.99 1120.03 1046.83 1119.96 1042.01 1120.6 C 1036.48 1123.99 1018.94 1126.21 1011.2 1127.87 C 1022.95 1136 1032.49 1147.35 1024.42 1161.37 C 1035.88 1160.64 1047.51 1160.66 1058.99 1160.75 C 1057.36 1124.03 1060.37 1076.18 1056.85 1041.34 C 1031.28 1058.48 1034.55 1079.01 1011.36 1037.75 C 1006.31 1028.77 1000.92 1020.52 997.521 1010.54 C 993.869 1011.44 990.237 1012.41 986.626 1013.46 C 949.822 1024.39 925.158 1039.3 906.608 1073.53 C 906.79 1078.39 910.826 1074.65 913.171 1080.52 L 911.989 1082.84 C 907.867 1083.89 907.422 1082.6 902.432 1081.53 C 895.356 1091.73 889.525 1106.03 884.409 1117.56 C 881.922 1122.85 879.436 1127.94 877.323 1133.4 C 872.434 1143.5 873.236 1145.27 870.427 1155.39 C 869.485 1158.78 863.145 1169.64 861.595 1174.18 C 855.116 1194.24 846.436 1215.58 845.275 1236.82 C 843.752 1264.68 852.209 1283.33 882.121 1284.96 z M 973.532 850.41 C 971.823 858.98 971.415 868.114 971.113 876.828 L 971.172 877.662 C 970.174 907.326 972.972 961.76 1006.8 975.32 C 1024.01 982.216 1039.53 974.94 1055.18 968.124 C 1057.83 968.419 1056.56 968.003 1058.77 970.075 L 1058.28 972.044 C 1051.18 978.641 1037.32 981.673 1028.14 983.607 C 1027.87 989.461 1027 995.221 1026.24 1001.04 C 1034.06 1013.07 1047.11 1025.36 1058.36 1034.14 C 1070.26 1022.98 1083.51 1010.2 1092.3 996.466 C 1090.49 972.924 1089.99 954.367 1090.07 930.821 C 1106.49 927.573 1124.66 916.281 1109.51 893.127 C 1105.26 886.631 1091.06 902.883 1084.62 901.844 C 1071.51 902.333 1075.75 880.738 1075.48 880.542 C 1062.23 870.666 1060.96 871.532 1058.42 850.601 C 1057.11 851.124 1055.79 851.635 1054.47 852.134 C 1046.38 855.285 1043.03 855.302 1035.74 849.904 C 1028.47 844.525 1021.94 851.314 1014.76 852.527 C 1009.7 853.383 1004.13 850.842 1000.03 848.031 C 987.925 853.403 986.073 854.679 973.532 850.41 z M 973.438 881.462 C 973.903 878.149 974.231 877.975 975.838 875.124 C 981.641 873.748 988.158 871.207 990.881 878.208 L 990.051 879.545 C 980.809 879.4 981.47 880.118 973.438 881.462 z M 210.666 1295.99 L 248.747 1295.98 C 252.722 1238 279.552 1135.74 301.535 1082.11 C 280.293 1084.85 247.913 1085.69 225.693 1087.12 C 209.859 1092.23 197.474 1101.34 198.024 1119.39 C 198.405 1131.87 197.465 1166.73 200.651 1177.37 C 202.042 1213.74 206.463 1259.86 210.666 1295.99 z M 728.875 1000.37 C 735.385 1000.97 747.22 1001.65 752.755 1004.53 L 753.402 1005.92 C 747.945 1011.01 741.32 1005.07 735.516 1007.65 C 735.095 1009.38 733.108 1017.76 732.377 1018.8 C 725.357 1028.71 715.589 1029.68 708.434 1040.51 C 707.17 1049.9 706.374 1055.59 703.96 1064.67 L 742.833 1068.21 C 756.393 1069.99 769.971 1071.63 783.564 1073.14 C 788.792 1041.67 796.593 1007.92 803.594 976.745 C 806.432 964.113 810.263 944.199 813.637 932.448 C 784.076 926.759 754.165 924.872 727.198 919.657 C 723.032 937.627 719.864 958.568 716.608 976.796 C 714.997 985.817 712.014 1002.44 711.341 1011.16 C 717.746 1008.51 723.168 1004.34 728.875 1000.37 z M 461.434 1034.69 C 479.392 1049.59 501.257 1054.44 511.128 1028.17 C 510.49 1026.72 508.018 1021.08 507.999 1019.92 C 507.876 1012.25 514.342 998.747 517.177 991.351 C 510.199 988.472 495.928 983.235 491.548 977.553 L 491.847 975.968 C 496.095 973.919 515.291 985.163 523.938 987.095 C 559.141 994.964 575.742 961.363 582.093 930.257 C 580.055 929.576 578.417 928.641 576.492 927.676 C 571.615 928.68 574.789 936.417 568.738 941.076 C 564.459 942.282 561.924 941.474 558.026 939.361 L 557.42 937.153 C 562.45 934.375 563.944 937.153 567.518 934.622 C 567.858 930.079 563.457 904.274 560.543 902.036 C 557.683 904.477 556.089 909.18 554.35 912.64 C 547.267 926.732 547.902 925.909 533.716 930.758 C 519.552 926.573 513.391 922.397 512.027 907.05 C 512.15 903.679 512.406 903.261 511.14 900.081 C 508.609 897.718 504.857 897.965 501.221 897.674 C 490.69 896.48 482.385 895.837 472.079 896.442 C 468.034 896.68 460.876 882.507 452.506 889.887 C 443.199 898.093 440.704 912.476 449.298 921.977 C 454.169 927.363 460.747 929.43 466.808 931.911 C 468.319 951.345 464.684 958.585 464.858 972.945 C 465.072 990.567 482.012 1001.19 471.131 1025.44 C 468.015 1028.72 464.755 1031.63 461.434 1034.69 z M 1341.63 1360.76 C 1344.4 1342.19 1345.08 1326.28 1345.91 1307.66 C 1346.22 1300.69 1346.73 1285.75 1347.83 1279.44 C 1326.77 1287.21 1293.63 1289.03 1272.99 1279.02 C 1272.96 1291.4 1270.21 1357.94 1276.79 1365.05 C 1284.65 1373.54 1306.69 1372.61 1317.26 1371.98 C 1323.87 1371.59 1334.99 1371.47 1339.37 1365.73 C 1340.47 1364.28 1341.1 1362.47 1341.63 1360.76 z M 1526.2 974.175 C 1525.85 980.003 1525.55 985.162 1524.8 990.963 L 1522.72 992.328 C 1522.35 995.193 1522.35 994.459 1523.27 997.138 C 1530.79 1019.1 1558.38 1024 1577.77 1016.6 C 1591.31 1011.49 1602.2 1001.1 1607.95 987.82 C 1603.12 964.417 1601.69 940.632 1600.57 916.803 C 1600.25 910.077 1600.1 906.195 1597.74 899.837 C 1602.5 894.665 1611.79 894.481 1615.66 889.168 C 1621.95 880.538 1624.71 864.254 1614.65 857.261 C 1612.42 855.681 1609.64 855.068 1606.96 855.563 C 1603.19 856.247 1597.48 860.315 1596.62 863.984 C 1590.16 891.639 1600.56 917.481 1583.2 942.985 L 1582.49 943.999 C 1581.44 945 1572.49 953.712 1571.99 954.441 C 1558.4 964.851 1542.38 969.541 1526.2 974.175 z M 1503.16 859.391 C 1514.07 829.376 1540.08 834.652 1552.85 859.03 C 1562.76 857.184 1573.88 856.202 1583.97 855.084 C 1582.65 851.492 1580.19 845.312 1579.84 841.698 C 1578.39 826.879 1581.51 802.07 1558.57 804.374 C 1523.39 809.744 1505.33 816.566 1469.77 804.604 C 1465.97 818.628 1465.17 826.418 1464 840.984 C 1470.33 839.296 1474.12 837.394 1480.09 840.098 C 1484.86 844.754 1481.92 856.111 1490.04 857.645 C 1494.29 858.449 1497.65 858.023 1503.16 859.391 z M 1795.99 1287.98 L 1809.86 1287.9 C 1813.7 1247.22 1816.83 1206.48 1819.24 1165.69 C 1820.22 1148.05 1824.89 1100.49 1814.51 1087.5 L 1813.95 1086.8 C 1806.27 1077.49 1796 1075.87 1784.57 1074.77 L 1764.86 1072.92 C 1785.66 1122.53 1830.66 1240.54 1795.99 1287.98 z M 795.345 1281.05 C 777.484 1288.74 743.846 1289.39 726.108 1282.26 C 724.712 1281.69 723.339 1281.07 721.99 1280.39 C 722.498 1294.35 722.117 1360.12 729.654 1366.83 C 738.993 1375.13 762.515 1373.36 773.971 1372.1 C 780.296 1371.4 788.772 1369.75 793.438 1365.17 C 796.797 1343.85 794.251 1304.67 795.345 1281.05 z M 176.954 1187.15 C 177.093 1195.41 177.56 1201.82 178.338 1210.06 C 181.335 1238.84 182.694 1267.22 186.246 1296.1 C 192.485 1296.22 198.986 1296.12 205.249 1296.11 C 200.247 1267.28 198.928 1227.29 196.223 1197.21 C 193.974 1172.2 192.116 1142.34 192.681 1117.38 C 192.968 1104.73 197.5 1096.1 206.947 1087.93 C 197.03 1089.91 188.658 1091.21 181.526 1099.2 C 173.464 1108.16 173.342 1120.85 173.864 1132.21 C 174.706 1150.53 175.764 1168.85 176.954 1187.15 z M 1684.68 1134.52 C 1682.61 1144.12 1699.54 1185.15 1701.02 1197.29 C 1701.37 1200.12 1704.39 1209.39 1705.67 1212.04 C 1707 1212.95 1707.51 1213.36 1708.95 1214.07 C 1707.76 1203.39 1692.69 1144.19 1687.65 1136.31 L 1684.68 1134.52 z M 1272.73 1275 C 1293.65 1276.47 1306.4 1269.6 1329.78 1275.29 L 1330.76 1275.55 C 1336.6 1276.97 1338.35 1276.91 1343.95 1274.83 L 1344.63 1273.71 C 1335.87 1267.22 1305.58 1267.46 1294.62 1268.31 C 1285.73 1269.51 1280.87 1270.87 1272.73 1275 z M 568.436 898.636 C 566.758 902.44 564.542 908.209 566.348 912.129 C 568.778 907.609 570.261 903.728 568.436 898.636 z M 1476.42 916.185 C 1482.72 911.964 1485.07 910.843 1492.05 907.773 C 1476.29 902.322 1481.91 898.805 1482.73 886.095 C 1477.61 890.846 1473.86 891.807 1467.23 894.012 C 1468.41 900.915 1469.39 909.745 1472.15 915.893 L 1473.97 916.973 L 1476.42 916.185 z M 528.908 885.07 C 514.402 892.83 514.727 905.434 521.176 918.929 C 528.774 923.338 530.403 924.635 538.892 923.046 C 555.199 912.285 555.521 886.851 536.032 885.17 C 533.662 884.985 531.282 884.951 528.908 885.07 z M 1042.29 1260.27 C 1017.42 1269.02 1019.38 1297.48 1045.73 1300.44 C 1052.65 1299.3 1057.98 1297.8 1062.52 1291.86 C 1065.61 1287.84 1066.84 1282.7 1065.91 1277.72 C 1064.29 1268.58 1057.97 1264.05 1050.12 1260.33 C 1052.12 1256.7 1054.78 1252.97 1054.72 1248.98 C 1052.48 1246.36 1053.85 1247.17 1050.47 1246.48 C 1045.93 1252 1045.19 1253.97 1042.29 1260.27 z M 586.757 876.057 C 585.195 857.981 580.268 835.231 564.006 824.493 C 558.157 847.186 546.761 861.773 526.53 874.285 C 513.153 882.558 498.739 885.212 484.682 890.924 C 493.889 891.746 504.195 892.896 513.342 893.278 C 523.736 876.394 530.514 883.401 536.174 874.931 C 538.823 872.027 542.389 872.391 546.043 873.252 L 547.434 875.008 L 547.109 877.021 L 545.77 877.83 C 544.408 878.663 543.786 879.065 542.552 879.986 C 551.097 886.599 552.001 886.94 557.14 896.369 C 562.093 894.718 563.726 895.343 568.799 896.461 C 577.27 891.207 565.012 889.143 584.946 882.319 L 584.302 881.239 C 581.326 881.102 578.353 880.903 575.386 880.641 L 574.768 877.964 C 577.68 874.3 582.37 875.597 586.757 876.057 z M 565.82 1303.24 C 559.287 1298.81 554.693 1296.49 546.961 1294.21 C 549.902 1305.84 553.021 1317.42 556.317 1328.96 L 557.591 1329.63 L 559.93 1323.4 C 561.803 1317.1 564.275 1309.51 565.82 1303.24 z M 1356.47 1332.49 C 1362.82 1322.49 1363.96 1312.59 1352.29 1306.33 C 1351.54 1312.85 1348.72 1328.86 1351.62 1333.98 C 1354.57 1334.21 1353.22 1334.16 1356.47 1332.49 z M 1455.02 882.713 L 1458.65 884.894 C 1461.65 881.991 1459.24 851.319 1458 849.199 C 1443.87 857.26 1445.36 871.45 1455.02 882.713 z M 1019.26 1111.55 C 990.607 1114.68 970.107 1119.69 947.314 1138.06 C 943.938 1140.9 937.975 1144.04 935.226 1147.35 C 933.333 1149.63 933.232 1160.22 937.441 1160.56 C 959.396 1162.34 981.878 1160.6 1004.11 1161.31 C 998.733 1156.53 984.452 1151.01 983.002 1146.1 C 989.559 1139.85 1005.27 1160.5 1016.95 1160.91 L 1017.88 1159.95 C 1013.78 1146.16 997.972 1144.97 989.715 1137.3 C 989.207 1133.84 988.8 1135.29 990.358 1132.69 C 1000.69 1132.03 1020.99 1153.53 1023 1153.51 C 1023.92 1136.89 1006 1136.09 998.61 1125.78 C 1002.08 1120.84 1031.59 1120.34 1038.51 1116.37 C 1038.5 1116.37 1040.97 1115.66 1040.96 1115.66 L 1041.57 1113.61 C 1038.12 1110.59 1024.74 1111.53 1019.26 1111.55 z M 796.009 1276.05 C 779.655 1268.61 763.841 1267.74 746.07 1269.57 C 739.403 1270.21 732.834 1270.61 727.278 1274.52 C 731.791 1278.08 758.213 1273.08 769.24 1274.41 C 777.875 1275.29 787.431 1276.61 796.009 1276.05 z M 1367.47 1320.08 C 1363.78 1334.33 1363.03 1334.58 1350.47 1342.66 L 1350.24 1344.42 C 1351.15 1344.54 1352.78 1344.8 1353.65 1344.86 C 1380.91 1341.67 1376.66 1295.83 1351.15 1294.49 C 1354.01 1307.1 1362.88 1298.86 1367.47 1320.08 z M 715.532 1307.77 C 706.741 1314.75 704.1 1323.73 712.205 1332.64 C 713.043 1333.58 713.926 1334.47 714.852 1335.32 L 717.273 1335.6 C 719.77 1332.18 718.853 1310.4 715.532 1307.77 z M 927.346 1149.84 C 922.913 1153.13 919.86 1155.08 916.414 1159.5 L 916.522 1160.77 L 917.782 1161.02 C 922.46 1161.27 925.314 1162 929.159 1159.53 C 930.955 1156.17 930.11 1152.41 927.346 1149.84 z M 595.81 918.424 C 598.639 913.695 602.815 900.109 598.627 895.749 C 596.205 902.478 593.141 909.364 594.247 916.481 L 595.81 918.424 z M 716.717 1347.27 L 718.829 1346.36 L 718.909 1344.47 C 715.352 1341.53 710.028 1339.45 707.424 1336.13 C 701.921 1329.13 700.031 1316.09 705.882 1308.82 C 708.99 1304.95 716.576 1301.75 716.686 1297.14 L 715.669 1296.23 C 688.095 1302.34 691.173 1341.35 716.717 1347.27 z M 1463.71 1396.07 C 1466.94 1383.42 1471.86 1367.61 1474.41 1355.41 C 1459.82 1356.23 1409.69 1354.95 1399.73 1358.89 C 1395.09 1367.05 1452.24 1404.89 1460.73 1410.46 C 1461.24 1406.69 1461.64 1403.36 1462.51 1399.67 L 1463.71 1396.07 z M 707.196 1108.97 C 716.561 1082.81 722.26 1090.52 735.608 1072.94 C 727.563 1071.45 703.896 1070.98 698.938 1067.97 C 697.578 1061.83 702.781 1038.89 705.662 1035.35 C 718.196 1019.9 722.357 1027.11 731.507 1007.32 C 723.847 1010.96 691.504 1028.57 686.195 1029.83 C 687.21 1022.55 695.377 1019.28 701.179 1016.39 C 707.968 1012.72 706.969 1003.77 708.406 996.116 C 700.705 1002.55 694.522 1007.19 689.241 1015.82 C 686.065 1019.38 683.772 1025.35 682.218 1029.87 C 675.873 1045.75 679.018 1068.41 673.01 1090.76 C 684.607 1096.45 696.008 1102.52 707.196 1108.97 z M 1467.22 887.222 C 1489.03 882.301 1489.91 848.088 1465.02 847.537 C 1464.78 852.683 1463.92 858.099 1465.94 862.6 C 1470.53 865.761 1475.82 857.892 1474.67 873.22 L 1473.47 874.727 C 1471.49 874.297 1469.52 873.833 1467.55 873.336 C 1465.11 876.932 1466.6 882.577 1467.22 887.222 z M 583.771 922.725 C 584.56 914.818 586.099 914.641 578.732 910.987 C 576.206 902.892 586.095 903.261 586.942 892.464 C 585.709 889.563 586.005 889.141 582.468 888.595 C 571.91 894.627 573.62 902.862 574.159 913.788 C 576.487 917.688 577.785 920.568 581.313 923.413 C 583.442 923.271 582.714 923.713 583.771 922.725 z M 1811.9 1075.87 C 1823.39 1086.67 1826.82 1096.31 1827.29 1112.37 C 1827.75 1128.46 1826.35 1145.87 1825.13 1161.95 C 1822.51 1204.02 1819.33 1246.06 1815.58 1288.05 L 1833.92 1287.84 C 1838.07 1248.33 1841.12 1207.76 1842.87 1168.07 C 1843.1 1162.95 1843.09 1157.43 1842.8 1152.32 C 1845.63 1136.86 1846.69 1105.1 1839.64 1090.77 L 1838.07 1087.64 C 1828.27 1079.17 1825 1078.64 1811.9 1075.87 z M 1002.7 1008.87 C 1006.61 1017.68 1023.44 1050.99 1030.89 1054.05 C 1033.94 1052.92 1033.75 1052.79 1035.99 1050.33 C 1041.54 1044.51 1045.27 1041.94 1051.82 1037.14 C 1040.1 1025.48 1028.89 1014.28 1018.87 1001.1 C 1018.06 1000.04 1015.72 999.831 1014.48 999.758 C 1008.75 1002.49 1007.03 1004.15 1002.7 1008.87 z M 1089.22 1094.5 L 1081.9 1092 L 1079.98 1091.01 C 1078.35 1087.98 1078.98 1088.41 1079.41 1084.25 C 1084.39 1086 1088.76 1087.77 1093.96 1088.66 C 1093.14 1092.34 1093.74 1092.75 1091.45 1094.68 L 1089.22 1094.5 z M 616.525 1403.81 C 621.947 1399.66 639.074 1387.5 641.352 1382.24 C 638.96 1376.81 628.325 1377.15 623.008 1376.89 C 604.959 1376.01 586.756 1375.9 568.695 1375.86 C 573.444 1393.52 577.999 1410.93 583.654 1428.34 C 594.69 1420.27 605.647 1412.09 616.525 1403.81 z M 1457.21 1234.18 C 1456.74 1219.76 1454.24 1204.89 1453.75 1190.34 C 1453.38 1179.67 1453.27 1140.69 1449.42 1132.27 L 1445.62 1130.93 C 1445.48 1150.93 1449.09 1167.69 1451.57 1187.34 C 1446.54 1198.28 1439.64 1216.29 1436.17 1227.95 C 1430.2 1226.26 1410.95 1219.31 1406.32 1220.96 C 1407.46 1226.18 1429.59 1229.72 1436.03 1231.6 C 1445.75 1234.42 1455.34 1237.68 1464.76 1241.39 C 1469.89 1243.16 1498.16 1253.61 1501.61 1252.78 C 1493.11 1246.07 1468.65 1238.86 1457.21 1234.18 z M 1092.14 1048.02 C 1095.19 1043.41 1101.17 1035.91 1100.45 1030.63 C 1097.26 1029.82 1092.77 1029.13 1090.53 1027.04 C 1089.55 1023.77 1089.68 1025.53 1091.27 1021.57 L 1093.05 1020.33 C 1097.1 1021.08 1101.16 1025.48 1104.43 1028.4 C 1110.69 1018.48 1112.78 1014.59 1115.84 1003.33 C 1110.53 998.63 1108.19 996.789 1101.63 993.503 C 1092.28 1009.36 1077.91 1023.41 1064.9 1036.42 C 1071.91 1042.42 1079.33 1049.05 1086.78 1054.41 L 1092.14 1048.02 z M 1495.62 922.348 C 1491.03 922.989 1491.16 921.978 1487.19 925.239 C 1481.34 930.041 1487.93 941.22 1492.84 939.891 C 1495.82 939.083 1499.28 932.194 1504.15 930.241 C 1509.03 931.688 1509.23 936.428 1511.37 940.875 C 1522.84 944.342 1531.29 934.731 1522.7 925.637 C 1518.43 921.126 1501.37 921.073 1495.62 922.348 z M 1533.79 848.06 L 1531.66 851.79 C 1525.91 853.133 1513.61 847.711 1510.94 854.832 C 1506.34 867.12 1510.05 880 1520.28 886.778 C 1550.13 894.461 1556.46 854.515 1533.79 848.06 z M 1116.83 1066.01 C 1115.21 1062.65 1113.78 1060.81 1114.53 1057.25 L 1115.88 1055.96 C 1121.41 1057.49 1123.91 1064.03 1122.87 1069.35 C 1120.8 1068.38 1118.82 1067.16 1116.83 1066.01 z M 1553.12 863.921 C 1552 880.353 1545.15 895.274 1525.97 893.886 C 1506.02 892.443 1507.55 873.899 1498.72 865.583 L 1496.48 865.181 C 1495.27 866.396 1486.96 893.064 1485.3 897.36 C 1493.72 906.759 1515.24 904.411 1524.66 909.525 C 1541.15 918.479 1544.59 932.156 1562.86 913.594 C 1576.43 899.806 1581.25 882.615 1582.55 863.525 C 1582.65 862.041 1582.73 861.464 1582 860.696 C 1572.29 861.613 1562.74 863.015 1553.12 863.921 z"/>
<path transform="translate(0,0)" fill="url(#Gradient4)" d="M 628.191 1321.84 C 629.544 1321.69 628.767 1321.87 630.448 1321.05 L 628.385 1321.47 C 632.019 1318.52 632.193 1319.48 636.663 1320.28 C 645.521 1324.66 667.464 1337.2 668.964 1347.75 C 664.582 1346.05 656.796 1337.96 651.681 1334.59 C 643.568 1329.25 637.047 1325.77 628.191 1321.84 z"/>
<path transform="translate(0,0)" fill="rgb(33,32,36)" d="M 643.182 1310.37 C 644.949 1311.15 647.864 1312.62 649.619 1312.96 L 651.295 1315.18 C 642.964 1319.58 644.147 1316.75 636.213 1314.31 L 634.459 1313.79 L 634.959 1310.39 C 636.743 1311.21 638.517 1312.06 640.278 1312.92 L 643.182 1310.37 z"/>
<path transform="translate(0,0)" fill="rgb(0,0,0)" d="M 1631.2 1298.17 C 1656.75 1296.89 1659.79 1329.62 1632.25 1337.01 C 1606.75 1337.64 1606.37 1307.78 1631.2 1298.17 z M 1633.93 1331.01 C 1650.46 1323.04 1650.01 1301.99 1631.56 1304.08 C 1614.41 1313.19 1613.2 1332.07 1633.93 1331.01 z"/>
<path transform="translate(0,0)" fill="rgb(0,0,0)" d="M 410.914 1319.02 C 433.919 1317.82 447.691 1345.33 424.925 1356.89 C 399.91 1358.61 388.635 1330.68 410.914 1319.02 z M 424.215 1350.86 C 438.834 1338.98 426.98 1325.07 411.673 1324.89 C 397.393 1336.9 407.676 1351.69 424.215 1350.86 z"/>
<path transform="translate(0,0)" fill="rgb(170,162,170)" fill-opacity="0.0313725" d="M 445.499 1424.49 L 491.097 1425.15 L 490.674 1426.17 C 481.568 1425.36 449.316 1427.32 444.181 1425.64 L 445.499 1424.49 z"/>
<path transform="translate(0,0)" fill="rgb(0,0,0)" d="M 1181.4 1052.67 C 1183.89 1053.13 1182.99 1052.76 1184.99 1054.5 L 1185.03 1056.49 C 1182.89 1060.59 1180.34 1062.28 1176.83 1065.3 C 1173.94 1064.63 1175.29 1065.19 1172.99 1063.02 L 1172.99 1060.97 C 1175.3 1056.93 1177.75 1055.51 1181.4 1052.67 z"/>
<path transform="translate(0,0)" fill="rgb(0,0,0)" d="M 1149.18 1096.65 C 1150 1096.84 1151.42 1097.46 1152.26 1097.79 L 1152.89 1099.91 C 1151.57 1104.29 1148.16 1107.5 1145.09 1111.08 C 1144.59 1110.92 1142.95 1109.94 1142.42 1109.65 L 1141.89 1107.05 C 1143.38 1102.67 1146.12 1100.18 1149.18 1096.65 z"/>
<path transform="translate(0,0)" fill="rgb(0,0,0)" d="M 1198.82 1094.75 C 1205.22 1096.71 1208.52 1102.97 1208.73 1109.37 L 1205.5 1109.03 C 1199.94 1105.2 1197.6 1101.5 1198.82 1094.75 z"/>
<path transform="translate(0,0)" fill="rgb(0,0,0)" d="M 1247.4 1263.13 C 1249.97 1263.5 1248.94 1262.92 1250.58 1264.7 L 1249.24 1267.1 C 1244.62 1270.17 1243.81 1270.19 1238.24 1270.65 C 1236.02 1270.49 1236.67 1270.47 1234.51 1269.35 L 1235.39 1266.97 C 1239.95 1264.06 1242.13 1263.99 1247.4 1263.13 z"/>
<path transform="translate(0,0)" fill="rgb(0,0,0)" d="M 1145.6 1139.43 L 1148.09 1140.98 L 1148.27 1142.95 C 1146.33 1147.17 1142.47 1150.23 1139.02 1153.53 C 1136.22 1152.35 1136.44 1151.5 1136.27 1149.02 C 1138.49 1144.89 1141.96 1142.52 1145.6 1139.43 z"/>
<path transform="translate(0,0)" fill="rgb(0,0,0)" d="M 1234.77 1184.9 C 1241.37 1184.75 1249.96 1184.42 1251.2 1191.97 C 1244.23 1192.15 1236.8 1192.45 1234.77 1184.9 z"/>
<path transform="translate(0,0)" fill="rgb(0,0,0)" d="M 1217.45 1142.65 C 1220.27 1148.89 1221.27 1151.77 1219.61 1158.39 L 1218.05 1159.48 C 1215.48 1157.49 1215.29 1156.2 1214.44 1152.66 C 1213.81 1146.81 1213.35 1146.88 1217.45 1142.65 z"/>
<path transform="translate(0,0)" fill="rgb(0,0,0)" d="M 1092.03 1127.73 C 1098.97 1127.48 1105.2 1130.51 1106.65 1137.6 C 1099.27 1137.92 1093.96 1134.98 1092.03 1127.73 z"/>
<path transform="translate(0,0)" fill="rgb(0,0,0)" d="M 1220.44 1234.94 C 1224.99 1236.28 1229.75 1239.72 1225.65 1244.51 L 1223.72 1243.93 C 1220.45 1242.12 1216.6 1241.49 1214.53 1238.53 C 1216.26 1235.8 1216.7 1236.39 1220.44 1234.94 z"/>
<path transform="translate(0,0)" fill="rgb(0,0,0)" d="M 1142.2 1018.54 C 1148.19 1022.26 1151.52 1027.04 1149.95 1034.07 C 1143.84 1031.44 1140.15 1025.07 1142.2 1018.54 z"/>
<path transform="translate(0,0)" fill="rgb(0,0,0)" d="M 1244.51 1225.33 C 1250.56 1226.75 1253.77 1234.93 1254.36 1240.54 C 1247.26 1238.24 1244.02 1232.46 1244.51 1225.33 z"/>
<path transform="translate(0,0)" fill="rgb(0,0,0)" d="M 983.139 1030.75 C 986.893 1031.11 985.563 1030.26 987.779 1032.45 L 987.087 1034.48 C 983.277 1038.24 981.17 1038.71 976.254 1040.73 C 973.778 1041.61 974.729 1041.44 972.089 1041.3 C 972.166 1040.08 972.269 1038.98 972.386 1037.77 C 975.673 1033.41 978.193 1032.81 983.139 1030.75 z"/>
<path transform="translate(0,0)" fill="rgb(0,0,0)" d="M 954.038 1091.8 C 960.407 1095.04 964.395 1100.15 963.185 1107.37 C 956.387 1103.51 951.067 1099.85 954.038 1091.8 z"/>
<path transform="translate(0,0)" fill="rgb(0,0,0)" d="M 872.496 1250.48 L 876.462 1251.33 L 877.57 1253.05 C 876.901 1256.9 873.497 1260.22 870.913 1263.39 C 868.455 1263.55 869.656 1263.59 867.122 1262.41 L 866.746 1259.98 C 868.438 1255.13 869.172 1254.59 872.496 1250.48 z"/>
<path transform="translate(0,0)" fill="rgb(0,0,0)" d="M 994.768 1065.88 C 1000.95 1067.51 1005.37 1073.75 1004.02 1080.22 C 999.273 1078.79 991.247 1071.64 994.768 1065.88 z"/>
<path transform="translate(0,0)" fill="rgb(0,0,0)" d="M 936.599 1056.5 C 942.494 1058.05 947.883 1064.22 948.073 1070.53 C 940.497 1069.55 936.043 1064.04 936.599 1056.5 z"/>
<path transform="translate(0,0)" fill="rgb(0,0,0)" d="M 897.303 1128.67 C 900.755 1129.2 899.484 1128.37 901.432 1130.91 C 900.532 1134.64 896.412 1138.19 893.606 1141.14 C 891.905 1141.47 892.078 1141.22 890.176 1140.75 L 889.861 1138.5 C 891.687 1134.44 894.324 1132 897.303 1128.67 z"/>
<path transform="translate(0,0)" fill="rgb(0,0,0)" d="M 865.289 1190.83 C 867.697 1190.67 867.523 1190.66 869.689 1191.75 L 869.781 1193.87 C 867.272 1197.44 867.16 1197.52 863.03 1199.21 C 859.978 1199.16 859.724 1199.46 857.178 1197.97 L 857.006 1196.18 C 859.539 1193.07 861.512 1192.58 865.289 1190.83 z"/>
<path transform="translate(0,0)" fill="rgb(0,0,0)" d="M 1047.59 1067.61 C 1048.96 1066.85 1050.63 1066.88 1051.96 1067.71 C 1053.29 1068.53 1054.08 1070.01 1054 1071.57 C 1053.93 1073.14 1053.01 1074.54 1051.61 1075.24 C 1049.51 1076.27 1046.97 1075.45 1045.88 1073.38 C 1044.79 1071.31 1045.55 1068.75 1047.59 1067.61 z"/>
<path transform="translate(0,0)" fill="rgb(0,0,0)" d="M 1046.29 1150.34 C 1049.77 1150.71 1050.3 1150.46 1053.16 1152.5 C 1054.03 1156 1053.75 1154.94 1052.57 1158.89 C 1048.3 1159.9 1050.12 1160.27 1046.8 1158.66 C 1045.32 1155.8 1045.96 1153.61 1046.29 1150.34 z"/>
<path transform="translate(0,0)" fill="rgb(0,0,0)" d="M 998.13 888.494 C 999.653 889.335 1000.29 889.947 1001.66 891.02 C 1007.93 903.945 991.7 920.268 996.321 926.813 C 999.559 927.412 1002.32 927.485 1004.71 929.593 L 1004.78 932.431 C 979.261 936.376 993.813 913.33 996.593 900.802 C 997.357 897.357 997.748 892.136 998.13 888.494 z"/>
<path transform="translate(0,0)" fill="rgb(0,0,0)" d="M 1025.96 939.861 C 1027.8 941.532 1027.05 940.532 1027.66 943.304 C 1023.92 951.256 1008.96 952.226 1001.19 952.067 C 999.652 950.954 1000.12 951.203 999.058 949.411 C 1000.57 945.654 1011.45 946.648 1016.37 944.709 C 1020.7 943.002 1022 942.205 1025.96 939.861 z"/>
<path transform="translate(0,0)" fill="rgb(0,0,0)" d="M 1021.64 873.074 C 1027.25 872.905 1035.4 872.92 1036.05 880.101 L 1034.49 881.081 L 1032.86 880.034 C 1026.83 878.03 1018.93 880.922 1016.28 877.322 C 1017.35 874.924 1019.23 874.359 1021.64 873.074 z"/>
<path transform="translate(0,0)" fill="rgb(0,0,0)" d="M 1019.78 893.124 C 1029.4 895.265 1027.86 901.204 1024.75 908.498 L 1021.78 908.67 C 1015.47 905.449 1018.28 898.818 1019.78 893.124 z"/>
<path transform="translate(0,0)" fill="rgb(0,0,0)" d="M 982.044 893.078 C 990.922 894.85 989.275 901.709 986.704 907.987 C 977.581 907.133 979.933 898.865 982.044 893.078 z"/>
<path transform="translate(0,0)" fill="rgb(0,0,0)" d="M 763.784 1024.03 C 768.007 1023.81 771.017 1023.88 774.582 1026.48 C 777.231 1028.38 778.959 1031.3 779.339 1034.54 C 779.782 1038.43 778.608 1042.34 776.092 1045.34 C 768.804 1053.94 759.973 1049.31 753.457 1042.87 C 750.036 1046.57 746.855 1049.06 743 1052.25 C 740.024 1048 738.719 1044.45 736.659 1039.72 L 735.346 1039.88 C 732.427 1042.56 725.482 1049.84 722.741 1051.03 C 721.999 1044.76 730.711 1032.07 738.589 1032.32 C 741.086 1034.69 742.587 1040.03 743.868 1043.49 C 757.654 1037.98 748.947 1032.51 763.784 1024.03 z M 766.505 1044.23 C 770.331 1044.17 773.472 1041.19 773.725 1037.37 C 773.978 1033.55 771.258 1030.18 767.473 1029.61 C 764.735 1029.21 762.001 1030.37 760.4 1032.63 C 758.8 1034.89 758.603 1037.86 759.892 1040.3 C 761.182 1042.75 763.738 1044.27 766.505 1044.23 z"/>
<path transform="translate(0,0)" fill="rgb(0,0,0)" d="M 763.632 956.723 C 769.786 952.001 778.872 940.921 786.561 941.173 C 789.742 944.579 788.33 951.116 785.266 953.986 C 773.643 953.047 773.018 955.665 765.491 963.672 L 763.298 963.584 C 759.433 960.716 759.082 959.278 756.711 954.877 C 749.397 956.086 746.874 966.378 737.487 967.391 C 739.594 961.873 750.32 947.924 756.117 947.66 C 759.597 949.674 761.39 953.282 763.632 956.723 z"/>
<path transform="translate(0,0)" fill="rgb(0,0,0)" d="M 729.949 974.597 L 731.918 976.564 C 741.903 977.637 751.869 978.886 761.81 980.312 C 769.356 981.618 783.872 981.397 789.643 985.668 L 789.485 986.945 L 787.049 988.249 C 779.598 988.094 732.181 983.07 728.618 980.205 C 728.304 976.66 728.22 978.449 729.949 974.597 z"/>
<path transform="translate(0,0)" fill="rgb(0,0,0)" d="M 727.996 988.15 C 736.323 988.427 776.597 993.272 785.643 996.744 C 786.766 997.176 786.399 998.996 786.443 1000.65 C 768.965 998.668 747.868 997.043 730.593 993.553 C 728.049 993.039 728.127 992.305 727.185 990.515 L 727.996 988.15 z"/>
<path transform="translate(0,0)" fill="rgb(0,0,0)" fill-opacity="0.984314" d="M 729.975 974.135 C 729.782 964.621 732.32 939.438 736.672 931.27 L 737.687 930.969 C 739.582 937.812 736.01 957.64 735.593 967.09 C 733.516 969.345 731.281 971.407 729.975 974.135 z"/>
<path transform="translate(0,0)" fill="rgb(0,0,0)" d="M 760.005 1003.99 C 767.935 1005.62 777.327 1004.5 784.437 1007.67 C 786.036 1008.39 785.67 1009.47 786.155 1011.89 C 778.965 1012.11 769.175 1011 762.179 1009.22 C 759.429 1006.71 760.34 1008.29 760.005 1003.99 z"/>
<path transform="translate(0,0)" fill="rgb(0,0,0)" d="M 533.247 945.636 C 537.367 946.167 543.945 951.33 548.743 953.203 C 554.222 955.341 557.594 954.096 559.822 959.249 C 549.533 961.309 535.306 957.35 533.247 945.636 z"/>
<path transform="translate(0,0)" fill="rgb(0,0,0)" d="M 1332.64 1298.18 C 1334.93 1299.29 1334.19 1298.76 1335.89 1300.62 C 1338.16 1307.62 1335.65 1331.85 1333.73 1339.39 C 1332.32 1339.32 1331.89 1339.07 1330.51 1338.68 C 1328.55 1333.7 1331.11 1304.39 1332.64 1298.18 z"/>
<path transform="translate(0,0)" fill="rgb(33,32,36)" fill-opacity="0.509804" d="M 1276.86 1319.67 L 1279.08 1320.01 C 1279.03 1327.93 1278.87 1336.15 1279.14 1344.03 L 1276.93 1343.41 L 1276.86 1319.67 z"/>
<path transform="translate(0,0)" fill="rgb(68,68,73)" fill-opacity="0.223529" d="M 1276.86 1319.67 C 1276.99 1315.82 1276.51 1314.46 1278.16 1311.29 C 1279.44 1314.69 1279.14 1316.42 1279.08 1320.01 L 1276.86 1319.67 z"/>
<path transform="translate(0,0)" fill="rgb(33,32,36)" fill-opacity="0.223529" d="M 1276.93 1343.41 L 1279.14 1344.03 C 1279.09 1347.23 1279.27 1347.24 1278.13 1350.16 C 1276.57 1347.82 1277.09 1346.73 1276.93 1343.41 z"/>
<path transform="translate(0,0)" fill="rgb(0,0,0)" d="M 739.416 1337.21 C 739.121 1337.74 737.708 1339.49 737.28 1340.04 L 735.708 1340.07 C 731.675 1333.6 731.629 1310.58 732.345 1302.44 C 732.493 1300.76 734.258 1300.45 735.722 1299.67 C 737.841 1307.15 738.884 1328.6 739.416 1337.21 z"/>
<path transform="translate(0,0)" fill="url(#Gradient3)" d="M 1582.49 943.999 L 1583.2 942.985 C 1600.56 917.481 1590.16 891.639 1596.62 863.984 C 1597.48 860.315 1603.19 856.247 1606.96 855.563 C 1609.64 855.068 1612.42 855.681 1614.65 857.261 C 1624.71 864.254 1621.95 880.538 1615.66 889.168 C 1611.79 894.481 1602.5 894.665 1597.74 899.837 C 1600.1 906.195 1600.25 910.077 1600.57 916.803 C 1601.69 940.632 1603.12 964.417 1607.95 987.82 C 1602.2 1001.1 1591.31 1011.49 1577.77 1016.6 C 1558.38 1024 1530.79 1019.1 1523.27 997.138 C 1522.35 994.459 1522.35 995.193 1522.72 992.328 L 1524.8 990.963 C 1525.55 985.162 1525.85 980.003 1526.2 974.175 C 1542.38 969.541 1558.4 964.851 1571.99 954.441 L 1574.17 955.632 C 1575.25 959 1574.47 958.079 1576.69 960.371 L 1577.27 956.473 C 1583.87 957.764 1577.58 959.637 1584.57 962.027 C 1589.66 958.476 1596.27 951.315 1591.65 945.243 C 1586.71 943.027 1586.88 945.384 1582.49 943.999 z"/>
<path transform="translate(0,0)" fill="rgb(0,0,0)" d="M 1017.09 1009.76 C 1020.85 1010.57 1021.91 1010.49 1023.06 1013.94 C 1021.22 1017.38 1021.54 1016.41 1017.65 1018.74 C 1015.18 1018.78 1015.28 1018.78 1012.91 1018.04 L 1011.93 1016.1 C 1013.1 1012.63 1014.28 1012.08 1017.09 1009.76 z"/>
<path transform="translate(0,0)" fill="rgb(0,0,0)" d="M 1518.12 861.438 C 1525.96 866.135 1524.49 872.389 1518.3 877.54 C 1510.86 872.681 1511.82 866.569 1518.12 861.438 z"/>
<path transform="translate(0,0)" fill="rgb(0,0,0)" d="M 540.845 897.27 C 550.25 899.425 549.24 905.474 546.019 912.838 C 540.634 911.752 540.578 912.074 538.285 907.07 C 538.369 902.333 538.883 901.753 540.845 897.27 z"/>
<path transform="translate(0,0)" fill="rgb(237,235,237)" fill-opacity="0.294118" d="M 1582.49 943.999 C 1586.88 945.384 1586.71 943.027 1591.65 945.243 C 1596.27 951.315 1589.66 958.476 1584.57 962.027 C 1577.58 959.637 1583.87 957.764 1577.27 956.473 L 1576.69 960.371 C 1574.47 958.079 1575.25 959 1574.17 955.632 L 1571.99 954.441 C 1572.49 953.712 1581.44 945 1582.49 943.999 z"/>
<path transform="translate(0,0)" fill="rgb(33,32,36)" d="M 1039.68 1106.68 C 1043.61 1106.88 1046.61 1106.59 1049.93 1108.57 C 1053.22 1113.08 1051.53 1117.3 1050.38 1122.39 C 1045.99 1120.03 1046.83 1119.96 1042.01 1120.6 L 1045.58 1117.76 L 1045.49 1116.65 C 1042.88 1115.75 1043.65 1115.93 1040.96 1115.66 L 1041.57 1113.61 C 1038.12 1110.59 1024.74 1111.53 1019.26 1111.55 C 1023.76 1108.82 1037.49 1111.78 1043.14 1111.07 L 1043.42 1110.17 L 1043.88 1110.31 C 1042.19 1108.66 1041.52 1108.14 1039.68 1106.68 z"/>
<path transform="translate(0,0)" fill="url(#Gradient2)" d="M 689.241 1015.82 C 695.775 1011.83 693.854 1012.75 701.179 1016.39 C 695.377 1019.28 687.21 1022.55 686.195 1029.83 C 684.832 1030.24 683.796 1029.97 682.218 1029.87 C 683.772 1025.35 686.065 1019.38 689.241 1015.82 z"/>
<path transform="translate(0,0)" fill="rgb(0,0,0)" d="M 1079.41 1084.25 C 1084.39 1086 1088.76 1087.77 1093.96 1088.66 C 1093.14 1092.34 1093.74 1092.75 1091.45 1094.68 L 1089.22 1094.5 L 1081.9 1092 L 1079.98 1091.01 C 1078.35 1087.98 1078.98 1088.41 1079.41 1084.25 z"/>
<path transform="translate(0,0)" fill="rgb(237,235,237)" fill-opacity="0.0117647" d="M 1471.79 1412.73 C 1479.04 1407.42 1489.6 1405.76 1496.21 1412.91 C 1489.2 1413.17 1478.49 1413.64 1471.79 1412.73 z"/>
<path transform="translate(0,0)" fill="rgb(0,0,0)" d="M 975.838 875.124 C 981.641 873.748 988.158 871.207 990.881 878.208 L 990.051 879.545 C 980.809 879.4 981.47 880.118 973.438 881.462 C 973.903 878.149 974.231 877.975 975.838 875.124 z"/>
<path transform="translate(0,0)" fill="rgb(0,0,0)" d="M 1116.83 1066.01 C 1115.21 1062.65 1113.78 1060.81 1114.53 1057.25 L 1115.88 1055.96 C 1121.41 1057.49 1123.91 1064.03 1122.87 1069.35 C 1120.8 1068.38 1118.82 1067.16 1116.83 1066.01 z"/>
<path transform="translate(0,0)" fill="rgb(33,32,36)" fill-opacity="0.984314" d="M 568.436 898.636 C 570.261 903.728 568.778 907.609 566.348 912.129 C 564.542 908.209 566.758 902.44 568.436 898.636 z"/>
<path transform="translate(0,0)" fill="url(#Gradient1)" d="M 971.113 876.828 L 974.235 872.726 L 975.633 872.769 L 975.838 875.124 C 974.231 877.975 973.903 878.149 973.438 881.462 C 972.888 879.125 972.902 879.772 971.172 877.662 L 971.113 876.828 z"/>
<path transform="translate(0,0)" fill="rgb(0,0,0)" d="M 1204.3 1473.77 C 1199.35 1464.14 1185.93 1442.46 1185.22 1433.69 C 1190.52 1426.46 1198.24 1433.66 1194.98 1421.22 L 1195.88 1419.27 C 1203.92 1416.53 1249.77 1409.4 1261.45 1407.74 C 1280.83 1405.01 1308.63 1398.63 1327.31 1396.16 C 1330.81 1398.65 1344.02 1410.78 1346.1 1413.6 C 1356.43 1427.59 1410.69 1471.16 1415.9 1484.96 C 1412.17 1490.19 1400.39 1491.9 1393.94 1494.64 C 1396.68 1498.58 1402.12 1505.37 1402.41 1509.69 C 1395.44 1513.62 1253.14 1540.23 1239.81 1540.22 C 1231.47 1528.53 1218.57 1499.23 1209.82 1484.13 C 1208.14 1480.68 1206.14 1477.16 1204.3 1473.77 z M 1257.24 1504.19 L 1263.61 1512.64 C 1265.6 1515.24 1266.06 1515.52 1268.47 1517.6 C 1279.12 1519.39 1391.83 1490.19 1408.86 1483.3 C 1400.53 1473.62 1390.54 1464.88 1381.42 1455.88 C 1363.54 1438.22 1344.29 1420.65 1326.96 1402.49 C 1309.7 1404.22 1288.13 1409.02 1270.48 1411.97 C 1248.96 1415.56 1222.09 1418.59 1201.31 1423.7 C 1205.66 1431.77 1214.38 1443.16 1219.86 1451.08 C 1231.99 1469.01 1244.45 1486.72 1257.24 1504.19 z M 1242.71 1535.16 C 1285.3 1529.14 1327.15 1519.32 1369.49 1511.93 C 1376.87 1510.64 1385.55 1509.68 1392.44 1506.78 C 1392.93 1501.23 1391.22 1500.19 1387.5 1496.22 C 1375.55 1498.05 1363.15 1502.66 1351.53 1505.5 C 1323.6 1512.31 1278.7 1525.57 1250.82 1525.79 C 1241.81 1513.78 1235.17 1498.87 1227.48 1485.8 C 1218.02 1469.74 1210.06 1452.36 1200.07 1436.62 C 1198.84 1434.68 1196.47 1434.71 1194.46 1434.37 L 1191.6 1436.75 C 1192.1 1441.09 1236.99 1525.76 1242.71 1535.16 z M 1259.96 1519.18 C 1257.83 1513.04 1231.53 1475.41 1226.9 1472.84 C 1229.64 1479.04 1249.45 1517.01 1253.95 1519.54 C 1256.98 1519.75 1256.98 1519.75 1259.96 1519.18 z"/>
<path transform="translate(0,0)" fill="rgb(0,0,0)" d="M 1323.73 1470.85 C 1332.43 1468.67 1361.25 1459.11 1367.63 1461.74 L 1368.19 1463.28 C 1364.91 1467.41 1321.24 1477 1312.73 1479.29 C 1310.21 1480.07 1305.48 1481.37 1303.19 1482.3 C 1292.54 1484.14 1275.8 1491.33 1268.41 1487.83 L 1268.31 1486.37 C 1276.44 1480.78 1309.02 1475.61 1321.69 1471.39 L 1322.83 1471 L 1323.73 1470.85 z"/>
<path transform="translate(0,0)" fill="rgb(0,0,0)" d="M 1341.69 1435.19 C 1344.83 1434.72 1346.38 1434.42 1348.14 1437.18 C 1344.99 1440.91 1268.21 1458.91 1257.24 1461.87 C 1254.49 1462.66 1254.45 1462.56 1251.55 1462.87 L 1250.34 1461.41 C 1253.24 1454.14 1331.61 1437.34 1341.69 1435.19 z"/>
<path transform="translate(0,0)" fill="rgb(0,0,0)" d="M 1311.7 1464.37 C 1301.92 1466.68 1266.7 1477.14 1260.43 1475.37 L 1261.38 1473.87 C 1265.52 1471.53 1273.42 1468.13 1278.11 1467.31 C 1289.14 1465.39 1353.76 1445.8 1359.04 1449.55 C 1353.84 1455.85 1325.02 1460.9 1315.67 1463.17 L 1311.7 1464.37 z"/>
<path transform="translate(0,0)" fill="rgb(0,0,0)" d="M 1245.14 1426.88 C 1259.74 1429.12 1266.82 1441.83 1250.15 1448.33 C 1234.18 1448.26 1228.81 1434.7 1245.14 1426.88 z"/>
<path transform="translate(0,0)" fill="rgb(0,0,0)" d="M 1375.7 1472.26 C 1377.1 1472.33 1377.34 1472.64 1378.73 1473.23 L 1378.7 1474.79 C 1374.86 1478.37 1339.36 1486.78 1331.19 1489.03 L 1329.76 1489.55 C 1326.67 1488.29 1326.96 1488.59 1329 1485.5 C 1336.34 1481.46 1366.8 1473.78 1375.7 1472.26 z"/>
<path transform="translate(0,0)" fill="rgb(237,235,237)" fill-opacity="0.00784314" d="M 1226.9 1472.84 C 1231.53 1475.41 1257.83 1513.04 1259.96 1519.18 C 1256.98 1519.75 1256.98 1519.75 1253.95 1519.54 C 1249.45 1517.01 1229.64 1479.04 1226.9 1472.84 z"/>
<path transform="translate(0,0)" fill="rgb(0,0,0)" d="M 731.489 1402.12 C 759.694 1401.99 793.157 1405.37 821.596 1406.87 C 830.569 1407.35 846.535 1407.65 854.758 1409.18 C 857.464 1412.41 854.316 1412.25 856.422 1417.99 C 859.659 1418.32 862.958 1418.11 865.126 1420.2 C 865.962 1426.72 840.921 1515.81 837.333 1522.2 C 831.962 1527.17 799.709 1525.9 791.25 1525.95 C 755.789 1525.86 719.328 1528.52 683.841 1528.59 C 682.531 1528.59 682.372 1527.68 681.459 1526.54 C 680.694 1522.3 682.241 1518.78 683.478 1514.53 C 675.857 1513.48 668.085 1511.74 660.527 1510.18 C 665.643 1497.2 683.259 1471.68 691.568 1459.51 C 703.965 1441.35 718.151 1419.38 731.489 1402.12 z M 835.883 1456.16 L 843.014 1436.39 C 845.436 1429.37 848.565 1420.99 850.506 1413.97 C 813.157 1412.88 770.821 1407.64 734.839 1407.81 C 725.886 1417.84 673.211 1496.25 669.628 1505.15 C 692.971 1510.47 736.569 1514.71 761.341 1516.4 C 768.738 1517.07 786.881 1517.75 792.876 1518.67 C 798.157 1519.02 804.561 1518.98 809.948 1519.07 L 815.791 1507.17 L 818.1 1502.13 C 824.051 1486.76 830.182 1471.65 835.883 1456.16 z M 820.752 1519.11 L 833.826 1518.69 C 838.835 1499.95 843.985 1481.24 849.273 1462.57 C 851.99 1452.93 857.502 1434.57 858.965 1425.11 C 856.551 1423.26 857.54 1423.91 854.186 1423.35 C 848.307 1436.64 843.146 1452.45 838.035 1466.29 C 831.57 1483.67 824.7 1500.89 817.432 1517.94 L 818.021 1518.97 L 820.752 1519.11 z M 800.874 1499.17 C 798.496 1501.5 798.487 1502.04 794.098 1501.89 C 789.485 1501.74 781.204 1501.13 776.791 1500.2 L 778.032 1496.5 C 783.002 1494.18 796.464 1495.59 800.874 1499.17 z M 689.351 1514.8 C 688.451 1517.69 687.402 1519.6 688.419 1522.32 C 695.709 1524.38 723.982 1521.9 733.478 1521.57 L 734.511 1520.45 C 731.106 1518.36 696.589 1515.51 689.351 1514.8 z"/>
<path transform="translate(0,0)" fill="rgb(0,0,0)" d="M 709.595 1462.71 C 726.434 1458.4 751.019 1465.6 770.814 1465.73 C 783.317 1468.06 800.678 1468.01 811.14 1470.61 C 812.933 1472.81 812.444 1471.58 812.629 1474.44 L 810.998 1475.44 C 807.272 1475.6 798.785 1475.03 795.248 1474.17 C 776.173 1469.5 724.828 1471.03 709.595 1462.71 z"/>
<path transform="translate(0,0)" fill="rgb(0,0,0)" d="M 708.125 1475.28 C 715.187 1474.56 749.942 1478.79 759.516 1479.86 C 771.126 1481.16 795.862 1482.63 806.592 1484.61 L 808.176 1488.89 C 803.536 1489.52 715.348 1481.57 709.383 1479.42 L 708.125 1475.28 z"/>
<path transform="translate(0,0)" fill="rgb(0,0,0)" d="M 734.179 1428.13 C 744.265 1428.66 819.823 1435.39 824.637 1438.1 L 825.384 1442.13 C 816.322 1442.05 738.505 1434.76 734.989 1432.24 C 733.877 1431.44 734.255 1429.4 734.179 1428.13 z"/>
<path transform="translate(0,0)" fill="rgb(0,0,0)" d="M 703.689 1488.05 C 713.148 1487.89 738.818 1490.39 748.066 1493.88 C 749.426 1494.39 749.283 1496.19 749.717 1498.26 C 736.775 1496.37 717.916 1496.08 705.376 1492.55 C 703.956 1492.15 704.114 1490.2 703.689 1488.05 z"/>
<path transform="translate(0,0)" fill="rgb(0,0,0)" d="M 809.837 1453.84 C 802.825 1452.97 782.989 1451.89 778.528 1448.33 L 778.549 1446.47 C 782.657 1444.71 815.024 1448.46 819.816 1449.91 L 821.098 1451.58 L 820.316 1453.76 C 817.839 1454.85 819.086 1454.82 816.575 1454.34 L 809.837 1453.84 z"/>
<path transform="translate(0,0)" fill="rgb(0,0,0)" d="M 728.831 1439.84 C 737.211 1439.55 760.922 1439.93 765.491 1446.9 C 758.969 1447.44 736.238 1447.01 730.136 1444.02 C 728.831 1443.38 729.138 1441.94 728.831 1439.84 z"/>
<path transform="translate(0,0)" fill="rgb(0,0,0)" d="M 776.791 1500.2 L 778.032 1496.5 C 783.002 1494.18 796.464 1495.59 800.874 1499.17 C 798.496 1501.5 798.487 1502.04 794.098 1501.89 C 789.485 1501.74 781.204 1501.13 776.791 1500.2 z"/>
<path transform="translate(0,0)" fill="rgb(0,0,0)" d="M 1294.22 1187.76 C 1317.13 1195.47 1298.05 1220.65 1294.23 1232.23 C 1292.46 1239.84 1298.51 1245.95 1296.18 1251.08 C 1294.18 1251.03 1293.86 1251.3 1292.05 1249.01 C 1279.12 1233.14 1298.69 1218.7 1299.47 1202.89 C 1299.83 1195.62 1294.94 1195.8 1292.56 1189.98 L 1294.22 1187.76 z"/>
<path transform="translate(0,0)" fill="rgb(0,0,0)" d="M 769.89 1205.56 C 771.354 1205.81 771.815 1206.06 773.215 1206.57 C 774.124 1209.87 771.802 1213.81 770.379 1217.2 C 774.832 1229.67 787.032 1243.38 774.982 1255.11 L 772.701 1253.45 C 772.003 1250.1 774.377 1246.6 776.011 1243.31 C 769.543 1230.17 759.885 1219.19 769.89 1205.56 z"/>
<path transform="translate(0,0)" fill="rgb(0,0,0)" d="M 745 1206.72 L 747.209 1208.38 C 747.112 1213.31 745.36 1214.56 743.872 1219.1 C 749.698 1231.65 760.231 1241.01 752.849 1253.94 L 751.362 1254.52 C 749.499 1251.08 750.391 1247.52 750.809 1243.51 C 743.107 1230.75 736.2 1224.58 740.997 1208.99 L 745 1206.72 z"/>
<path transform="translate(0,0)" fill="rgb(0,0,0)" d="M 1321.55 1204.1 C 1325.57 1205.17 1325.58 1204.94 1328.37 1207.83 C 1331.75 1228.37 1321.46 1221.32 1319.18 1238.48 C 1318.74 1241.82 1322.21 1247.72 1320.06 1251.23 L 1317.56 1251.58 C 1312.45 1247.6 1313.37 1238.04 1314.24 1232.25 C 1316.14 1228.64 1319.27 1224.68 1321.73 1221.33 C 1326.16 1214.62 1323.16 1211.47 1321.55 1204.1 z"/>
<path transform="translate(0,0)" fill="rgb(0,0,0)" d="M 830.263 881.657 L 832.288 882.345 L 832.979 884.424 C 831.278 889.737 824.452 895.476 820.257 899.413 C 818.003 897.827 818.879 898.829 818.006 896.034 C 819.555 890.445 825.869 885.614 830.263 881.657 z"/>
<path transform="translate(0,0)" fill="rgb(0,0,0)" d="M 688.154 887.593 C 696.268 889.105 703.293 895.009 707.085 902.23 C 698.976 902.377 690.189 895.472 688.154 887.593 z"/>
<path transform="translate(0,0)" fill="rgb(0,0,0)" d="M 837.385 944.951 C 844.15 945.587 856.343 945.072 858.881 951.781 C 854.251 952.419 842.362 952.395 838.792 949.273 C 837.263 947.936 837.797 947.601 837.385 944.951 z"/>
<path transform="translate(0,0)" fill="rgb(0,0,0)" d="M 795.454 863.182 L 798.002 864.068 L 798.945 866.415 C 798.444 873.536 796 878.442 793.134 884.865 L 791.012 884.268 C 788.781 879.165 793.392 869.13 795.454 863.182 z"/>
<path transform="translate(0,0)" fill="rgb(0,0,0)" d="M 720.722 867.466 C 726.91 870.167 730.921 881.949 731.116 888.394 C 724.353 885.455 719.751 874.463 720.722 867.466 z"/>
<path transform="translate(0,0)" fill="rgb(0,0,0)" d="M 757.643 858.588 C 759.683 860.012 759.02 859.507 760.536 861.637 C 761.646 867.505 762.571 875.881 759.545 881.221 C 755.562 876.98 754.707 863.238 757.643 858.588 z"/>
<path transform="translate(0,0)" fill="rgb(0,0,0)" d="M 848.923 912.177 C 851.272 911.608 852.635 911.38 854.551 912.675 L 854.218 914.087 C 850.122 917.771 847.626 918.175 842.466 919.742 C 839.764 919.853 839.951 919.819 837.473 918.677 L 837.938 916.708 C 842.299 913.335 843.333 913.439 848.923 912.177 z"/>
<path transform="translate(0,0)" fill="rgb(0,0,0)" d="M 789.449 1101.59 C 796.03 1103.64 799.148 1108.79 798.755 1115.68 L 795.926 1114.66 C 792.509 1110.95 789.345 1106.78 789.449 1101.59 z"/>
<path transform="translate(0,0)" fill="rgb(0,0,0)" d="M 709.398 841.391 L 712.643 842.733 C 716.451 847.191 718.047 850.734 717.727 856.637 C 712.347 854.863 709.261 846.727 709.398 841.391 z"/>
<path transform="translate(0,0)" fill="rgb(0,0,0)" d="M 777.26 1111.26 C 783.788 1113.96 784.225 1121.35 782.064 1127.23 C 777.508 1124.3 776.903 1116.17 777.26 1111.26 z"/>
<path transform="translate(0,0)" fill="rgb(0,0,0)" d="M 864.954 863.736 C 866.796 864.808 866.088 864.001 866.752 866.404 C 865.014 869.901 861.227 872.353 858.082 874.867 C 855.892 873.105 856.436 872.157 856.896 869.95 C 859.402 866.639 861.288 865.918 864.954 863.736 z"/>
<path transform="translate(0,0)" fill="rgb(113,114,118)" fill-opacity="0.0980392" d="M 606.221 878.5 L 607.3 878.891 C 608.245 884.015 607.976 887.337 607.876 892.499 L 606.537 892.527 C 605.51 886.917 605.91 884.134 606.221 878.5 z"/>
<path transform="translate(0,0)" fill="rgb(113,114,118)" fill-opacity="0.0196078" d="M 765.264 863.75 C 767.435 866.247 767.018 868.928 767.161 872.406 C 766.113 872.72 766.783 872.606 765.121 872.38 C 765.191 869.504 765.239 866.627 765.264 863.75 z"/>
</svg>