<svg version="1.1" xmlns="http://www.w3.org/2000/svg" style="display: block;" viewBox="0 0 2048 2048" width="1024" height="1024" preserveAspectRatio="none">
<defs>
	<linearGradient id="Gradient1" gradientUnits="userSpaceOnUse" x1="1454.3" y1="1024.06" x2="1467.39" y2="1012.05">
		<stop class="stop0" offset="0" stop-opacity="0.941176" stop-color="rgb(255,255,255)"/>
		<stop class="stop1" offset="1" stop-opacity="0.976471" stop-color="rgb(255,255,255)"/>
	</linearGradient>
	<linearGradient id="Gradient2" gradientUnits="userSpaceOnUse" x1="1433.07" y1="1045.08" x2="1389.01" y2="966.07">
		<stop class="stop0" offset="0" stop-opacity="0" stop-color="rgb(255,255,255)"/>
		<stop class="stop1" offset="1" stop-opacity="0.0901961" stop-color="rgb(255,255,255)"/>
	</linearGradient>
	<linearGradient id="Gradient3" gradientUnits="userSpaceOnUse" x1="1297.69" y1="929.536" x2="1557.77" y2="1204.88">
		<stop class="stop0" offset="0" stop-opacity="0.92549" stop-color="rgb(255,255,255)"/>
		<stop class="stop1" offset="1" stop-opacity="1" stop-color="rgb(255,255,255)"/>
	</linearGradient>
</defs>
<path transform="translate(0,0)" fill="rgb(4,4,5)" d="M 1229.2 517.315 C 1218.91 513.764 1211.8 510.833 1205.16 501.328 C 1199.66 493.413 1197.71 483.562 1199.79 474.148 C 1204.55 451.958 1229.4 441.747 1248.98 451.888 C 1253.52 454.241 1259.14 456.158 1264.16 457.218 C 1290.71 451.564 1315.42 436.194 1332.46 470.042 L 1334.06 470.409 C 1366.2 477.852 1362.18 513.291 1356.5 538.588 C 1352.98 554.249 1343.85 568.73 1329.74 576.938 C 1331.75 592.896 1333.38 608.901 1334.63 624.937 C 1364.87 625.447 1399.45 633.06 1425.49 648.915 L 1653.52 648.928 L 1726.01 648.337 C 1737.93 648.216 1749.88 647.968 1761.79 648.22 C 1772.13 648.439 1774.85 651.632 1779.9 660.011 L 1779.85 807.242 C 1779.84 829.896 1780.79 862.15 1779.36 884.175 C 1777.11 887.58 1773.53 893.501 1769.24 893.807 C 1746.3 895.44 1718.48 894.473 1695.55 894.442 L 1551.21 894.41 C 1524.11 894.426 1492.42 893.776 1465.65 895.057 C 1471.91 952.71 1475.12 1010.45 1480.61 1067.74 L 1489.11 1165.13 C 1490.71 1182.97 1494.07 1210.87 1494.19 1227.73 C 1507.31 1227.48 1520.79 1227.07 1533.87 1227.06 L 1533.77 1213.2 L 1524.43 1211.48 C 1521.77 1208.5 1519.29 1205.93 1517.11 1202.57 C 1516.63 1184.61 1516.49 1166.2 1516.46 1148.2 C 1516.77 1141.79 1515.28 1133.35 1519.96 1128.26 C 1524.54 1123.28 1531.99 1122.72 1538.32 1122.9 C 1577.47 1124.01 1617.8 1121.74 1656.79 1123.05 C 1657.14 1115.58 1657.79 1106.52 1657.47 1099.2 C 1667.61 1100.07 1683.82 1097.23 1688.6 1101.36 C 1692.01 1108.28 1690.56 1114.89 1690.02 1122.81 C 1720.26 1124.2 1707.99 1156.97 1709.91 1180.44 C 1711.4 1198.69 1711.68 1209.87 1692.01 1213.07 L 1691.33 1227.38 C 1707.86 1227.53 1728.5 1228.59 1744.68 1227.8 C 1744.98 1208.06 1746.17 1194.77 1761.5 1180.09 L 1762.52 1179.13 L 1765.09 1176.85 C 1783.13 1164.71 1806.24 1165.74 1827.65 1166.89 C 1827.49 1174.55 1827.25 1182.21 1826.93 1189.86 C 1815.28 1189.92 1801.69 1189.27 1790.43 1190.63 C 1761.78 1194.07 1768.45 1236.6 1768.59 1257.51 C 1768.77 1282.45 1768.82 1307.39 1768.72 1332.33 L 1768.76 1483.28 C 1768.76 1511.54 1768.56 1539.84 1769 1568.09 C 1769.1 1574.01 1770.93 1573.91 1765.69 1577.51 C 1767.42 1586.79 1781.18 1592.24 1770.77 1610.32 C 1768.71 1613.9 1764.74 1616.75 1761.25 1619 C 1775.21 1619.06 1794.79 1619.64 1808.3 1618.67 L 1808.92 1621.06 C 1806.38 1624.6 1793.79 1623.09 1789.25 1622.97 C 1652 1624.26 1513.58 1621.96 1376.29 1622.15 L 1236.46 1622.33 C 1191.9 1623.07 1147.34 1623.25 1102.78 1622.85 C 1089.94 1622.78 1055.99 1624.46 1045.62 1620.8 L 1045.95 1620.03 C 1080.08 1618.02 1123.57 1619.1 1158.47 1619.11 C 1163.65 1597.22 1161.9 1569.77 1161.87 1546.64 L 1161.75 1452.64 C 1161.72 1440.67 1161.03 1427.68 1161.31 1415.96 L 711.348 1415.8 L 546.832 1415.89 C 519.638 1415.9 488.495 1415.05 461.778 1415.99 C 463.265 1481.44 462.157 1553.37 461.907 1619.03 C 470.083 1619.95 486.397 1619.21 495.331 1619.18 L 563.476 1619.09 L 901.382 1619.71 C 942.876 1619.8 984.479 1619.61 1025.97 1619.2 C 1029.03 1619.17 1031.74 1619.22 1034.4 1620.7 L 1033.48 1621.88 C 1027.88 1623.31 995.934 1622.7 988.488 1622.72 L 875.045 1622.82 L 498.524 1622.9 C 424.205 1622.99 349.841 1622.33 275.554 1622.62 C 272.222 1622.63 266.166 1621.75 263.273 1620.21 C 270.586 1617.92 338.408 1619.46 349.972 1619.5 C 376.562 1619.57 403.153 1619.41 429.74 1619.01 C 428.85 1585.37 429.988 1545.17 430.005 1511.04 L 429.945 1275.31 C 419.668 1275.2 409.391 1275.23 399.116 1275.4 C 398.764 1262.26 399.39 1247.76 399.132 1234.05 C 405.842 1233.7 410.291 1233.84 417.011 1234.16 C 367.504 1162.75 313.513 1087.43 266.234 1015.15 C 277.003 1007.83 288.483 1000.53 299.409 993.359 C 289.974 978.49 273.726 962.456 276.193 944.033 C 277.839 914.298 324.373 894.125 344.816 916.838 C 362.616 936.614 379.496 966.762 395.944 988.573 C 406.304 1002.31 414.877 1017.18 425.411 1030.95 C 414.76 1001.25 412.422 976.116 436.982 952.581 C 434.241 943.667 428.953 931.568 425.372 922.68 L 423.73 922.46 C 393.047 918.5 374.976 897.089 372.45 866.988 C 373.85 844.469 379.242 830.497 394.316 814.151 C 400.76 810.428 405.401 807.899 412.033 805.447 C 440.864 794.788 478.25 803.421 482.79 838.299 C 483.639 844.821 487.798 853.086 489.758 859.465 C 497.301 879.58 501.033 907.419 477.057 918.086 C 479.989 924.532 482.154 928.862 485.652 935.01 C 496.818 937.016 546.358 948.601 555.445 953.444 C 559.794 955.734 563.521 959.048 566.304 963.1 C 573.083 972.967 575.437 990.296 580.005 995.765 C 597.998 1017.31 636.528 1030.83 657.633 1047.78 C 670.715 1047.58 685.436 1045.22 698.58 1043.91 C 723.968 1041.37 749.659 1037.83 775.039 1035.57 L 781.15 1034.96 C 780.593 1030.28 779.658 1025.76 780.633 1021.23 C 781.355 1004.17 803.846 970.549 813.418 954.351 C 832.032 922.84 850.879 891.467 869.957 860.234 L 898.752 811.648 C 902.946 804.528 909.965 791.686 914.715 785.519 C 901.857 764.852 903.701 769.133 911.618 748.759 C 932.336 736.156 956.683 724.685 978.042 712.908 C 996.448 702.759 1002.95 718.264 1009.13 732.965 C 1037.42 734.503 1055.37 754.153 1072.58 774.203 C 1091.53 780.118 1110.88 785.31 1130 790.697 C 1145.76 795.139 1155.87 799.684 1171.56 793.158 C 1177.28 782.874 1179.05 772.285 1182.43 761.052 C 1191.47 730.993 1197.39 687.838 1215.94 662.531 C 1228.21 645.794 1255.54 633.688 1275.56 631.149 C 1274.14 624.1 1274.18 615.258 1274.01 607.983 C 1228.32 608.488 1227.52 550.181 1229.2 517.315 z M 882.186 1037.42 L 882.615 1037.77 C 952.118 1059.57 1024.8 1085.18 1092.52 1112.65 C 1108.9 1119.29 1156.04 1043.34 1170.17 1073.95 C 1169.35 1087.62 1137.78 1145.84 1129.35 1162.28 C 1148.19 1161.88 1168.1 1162.16 1187.03 1162.13 C 1186.73 1149.39 1188.34 1132.29 1188.96 1119.25 C 1190.59 1084.84 1193.75 1049.16 1193.96 1014.74 C 1153.55 993.477 1142.83 962.862 1127.71 922.051 C 1120.76 922.459 1102.47 922.619 1101.33 915.877 C 1099.78 906.726 1096.27 908.218 1090.32 900.956 C 1087.67 897.713 1082.98 890.936 1084.34 885.939 C 1086.13 879.391 1078.41 879.673 1075.76 872.787 C 1076.3 860.207 1102.28 861.891 1111.63 861.409 C 1089.71 854.614 1067.82 847.702 1045.97 840.672 C 1046.72 835.206 1047.59 833.606 1044.58 829.606 C 1036.89 827.961 1030.6 838.014 1022.49 839.865 C 1016.37 842.894 1009.97 834.348 1006.66 834.032 C 1000.87 833.477 995.203 839.974 988.52 832.161 C 987.882 829.165 987.792 827.479 985.965 825 C 977.182 821.559 978.073 822.008 976.542 813.098 C 962.954 805.845 972.528 803.732 967.854 797.626 C 964.908 796.881 964.309 796.678 961.53 795.452 C 955.163 786.536 965.13 780.052 971.16 775.335 C 946.213 780.423 945.054 794.256 916.26 787.371 C 915.731 806.865 912.526 827.439 909.91 846.843 L 898.977 927.473 L 890.769 988.316 C 888.667 1004.07 886.846 1022.39 882.186 1037.42 z M 461.91 1388.11 C 504.98 1389.78 555.949 1388.64 599.562 1388.53 L 805.775 1388.73 L 1038.87 1388.81 C 1077.68 1388.81 1121.61 1389.94 1159.81 1388.63 C 1163.98 1384.83 1160.72 1305.34 1161.78 1296.01 C 1162.13 1292.9 1161.19 1278.72 1160.89 1275.13 L 701.193 1275.16 L 539.69 1275.31 C 515.815 1275.34 485.371 1276.27 461.94 1275.43 L 461.91 1388.11 z M 1756.11 872.154 L 1757.63 871.341 C 1759.02 862.077 1758.14 821.945 1758.14 809.668 L 1758.02 670.119 L 1444.58 669.953 C 1458.7 704.352 1450.11 706.357 1451.15 739.764 C 1451.86 762.728 1456.96 794.136 1458.39 818.037 C 1458.84 825.51 1462.51 868.187 1463.69 872.294 C 1480.47 873.652 1505.08 872.834 1522.34 872.798 C 1555.3 872.946 1588.26 872.827 1621.21 872.44 C 1663.48 872.044 1714.62 874.111 1756.11 872.154 z M 1399.12 877.824 C 1391.9 884.242 1387.05 888.417 1378.63 893.361 C 1362.34 901.282 1351.41 904.192 1333.11 905.547 C 1337.05 993.55 1339.61 1082.22 1344.21 1170.13 C 1344.3 1175.92 1344.62 1181.7 1345.14 1187.46 C 1345.06 1196.09 1345.41 1202.75 1346.02 1211.38 L 1348.55 1269.02 C 1391.38 1272.03 1451.21 1269.91 1495.23 1269.63 L 1474.65 1029.97 L 1473.72 1022.78 C 1473.8 1020.32 1473.23 1014.73 1473.04 1012.04 C 1471.93 998.793 1470.75 985.554 1469.5 972.321 C 1469.06 961.955 1467.5 948.19 1466.26 937.914 C 1463.03 899.455 1459.49 861.022 1455.65 822.62 C 1455.16 816.529 1454.61 810.444 1454 804.365 C 1453.89 795.601 1451.55 776.79 1450.49 767.659 C 1449.35 759.257 1448.91 753.587 1448.58 745.092 C 1446.34 755.619 1443.39 771.447 1440.47 781.278 L 1438.13 789.802 L 1438.03 791.555 C 1429.07 823.899 1420.97 851.71 1399.12 877.824 z M 1624.26 1335.03 C 1599.06 1334.64 1573.86 1334.58 1548.66 1334.84 C 1542 1334.87 1520.41 1334.58 1514.77 1335.46 C 1510.18 1335.61 1505.65 1335.84 1501.06 1335.7 L 1501.05 1364.16 C 1538.1 1364.42 1576.23 1364.69 1613.25 1364.27 L 1624.04 1364.38 L 1624.26 1335.03 z M 1593.76 1286.51 C 1582.67 1286.33 1571.57 1286.25 1560.47 1286.28 C 1555.67 1286.31 1543.05 1286.76 1538.82 1286.27 C 1538.87 1295.2 1538.62 1304.13 1538.06 1313.05 C 1549.93 1313.11 1584.22 1314.01 1594.02 1312.8 C 1593.98 1304.28 1594.13 1294.96 1593.76 1286.51 z M 1085.18 1152.8 L 1093.25 1155.54 L 1114.23 1161.74 C 1121.61 1147.59 1155.8 1083.71 1158.88 1071.16 C 1157.08 1069.4 1158.13 1070.02 1155.45 1069.71 C 1136.09 1083.69 1119.73 1103.81 1099.44 1116.25 C 1097.84 1117.23 1093.85 1117.36 1091.82 1117.41 C 1089.44 1122.01 1086.85 1144.98 1085.18 1152.8 z M 1124.13 1162.78 C 1130.07 1154.65 1167.42 1081.51 1167.34 1075.49 C 1165.73 1073.07 1165.84 1073.22 1163.4 1071.62 C 1155.21 1090.16 1145.5 1108.39 1136.38 1126.48 C 1132.09 1134.99 1121.53 1152.71 1118.95 1160.92 C 1120.62 1162.66 1121.19 1162.22 1124.13 1162.78 z M 1660.23 1103.12 C 1660.21 1109.68 1660.11 1116.4 1660.2 1122.95 L 1687.04 1123.01 L 1686.98 1103.3 L 1660.23 1103.12 z M 1049.66 838.261 C 1067.26 844.026 1085.32 849.343 1102.79 855.293 L 1107.92 856.85 L 1109.13 856.15 C 1106.2 842.375 1080.76 788.131 1068.75 777.58 C 1067.28 776.29 1061.03 775.02 1058.78 774.556 C 1056.35 793.572 1053.44 819.872 1049.66 838.261 z M 1192.82 1379.39 C 1190.74 1387.11 1191.31 1433.74 1192.83 1442.25 C 1194.05 1488 1192.92 1537.27 1193.19 1583.46 C 1203.9 1579.11 1218.85 1568.89 1228.04 1562.15 C 1228.34 1556.68 1229.47 1553.97 1225.62 1550.03 C 1222.67 1549.77 1223.39 1549.99 1220.64 1549.04 C 1219.13 1540.89 1220.25 1531.16 1219.73 1522.31 C 1217.3 1481.31 1219.67 1435.32 1216.07 1394.73 C 1217.02 1385.7 1215.82 1351.8 1215.06 1342.65 C 1214.98 1320.65 1213.26 1298.64 1213.13 1276.72 L 1211.98 1275.28 C 1205.69 1275.14 1199.4 1275.07 1193.11 1275.07 C 1192.94 1309.05 1193.7 1345.68 1192.82 1379.39 z M 460.798 1078.39 L 467.137 1088.04 C 484.915 1118.36 503.213 1147 539.091 1155.62 C 570.868 1163.26 601.253 1162.09 633.491 1162.11 L 724.777 1161.39 C 734.669 1161.25 750.456 1163.35 758.724 1162.37 L 760.046 1161.44 C 754.047 1153.54 731.976 1151.69 725.34 1148.24 C 733.306 1147.6 743.132 1150.42 750.674 1152.59 C 759.407 1155.11 760.921 1160.4 767.95 1161.73 L 769.142 1160.93 C 769.121 1149.87 745.059 1140.37 735.798 1137.7 C 721.561 1133.58 706.055 1134.89 691.475 1133.04 C 674.887 1129.98 656.478 1125.81 639.931 1122.26 C 614.02 1116.69 578.367 1111.43 553.872 1102.58 C 545.353 1098.03 542.803 1092.06 537.407 1083.81 C 535.401 1078.41 517.842 1052.24 513.892 1046.69 C 503.406 1053.08 493.005 1059.62 482.692 1066.29 C 475.665 1070.2 467.884 1074.76 460.798 1078.39 z M 1557.2 1227.56 C 1594.9 1229.09 1631.23 1226.84 1668.12 1227.12 L 1668.18 1212.16 C 1643.68 1212.52 1619.17 1212.74 1594.67 1212.82 C 1584.24 1212.8 1567.93 1213.14 1557.96 1212.25 C 1557.72 1217.14 1557.57 1222.73 1557.2 1227.56 z M 1467.14 1516.89 C 1469.14 1504.86 1468.02 1464.51 1468.03 1450.15 L 1468 1344.33 C 1467.88 1319 1467.2 1298.03 1468 1272.46 C 1463.57 1272.18 1457.33 1271.22 1453.52 1272.9 C 1451.04 1276.59 1451.92 1276.32 1451.93 1281.75 L 1452.05 1289.74 C 1452.5 1306.44 1454.35 1323.44 1455.13 1340.18 L 1455.52 1348.69 C 1455.77 1354.54 1456.18 1360.69 1456.76 1366.52 C 1461.66 1416.07 1461.37 1467.59 1467.14 1516.89 z M 1012.77 776.136 C 1020.8 788.617 1020.4 793.672 1035.73 795.437 L 1036.46 797.375 C 1032.56 800.04 1030.82 796.474 1027.77 799.015 C 1029.78 803.674 1036.3 812.767 1039.85 820.173 L 1040.23 824.998 C 1042.32 826.644 1043.1 825.942 1046.58 825.829 C 1050.22 823.504 1053.66 786.689 1054.51 779.941 C 1036.44 776.379 1033.67 768.922 1017.48 762.941 C 1015.73 762.295 1006.28 762.502 1003.73 762.534 C 998.454 763.379 991.242 763.584 991.996 770.312 C 998.378 777.113 1004.02 776.707 1012.77 776.136 z M 1611.03 1331.85 L 1610.97 1317 L 1551.05 1316.83 C 1541.9 1316.81 1523.86 1317.01 1515.05 1315.93 L 1515.23 1331.59 C 1545.88 1331.77 1580.95 1330.91 1611.03 1331.85 z M 1745.23 1541.02 C 1743.53 1539.94 1494.86 1539.07 1471.7 1539.9 C 1469.86 1544.87 1469.95 1579.56 1472.39 1583.61 C 1482.56 1600.46 1479.57 1606.75 1464.93 1619.24 C 1501.3 1618.73 1539.01 1618.47 1575.34 1619.15 C 1629.28 1620.15 1685.09 1617.25 1738.79 1619.4 C 1732.44 1613.08 1727.86 1606.33 1727.93 1596.91 C 1727.95 1590.79 1730.51 1584.95 1735.01 1580.79 C 1737.71 1578.32 1741.7 1576.63 1745.04 1575.1 L 1744.85 1550.82 L 1745.23 1541.02 z M 402.547 1237.98 C 402.641 1249.04 402.975 1260.82 402.314 1271.81 C 423.808 1272.24 445.198 1271.69 466.674 1271.77 L 617.938 1272.12 L 1048.63 1272.05 L 1156.61 1271.79 C 1178.86 1271.61 1202.8 1270.87 1224.89 1271.38 C 1226.25 1259.45 1225.56 1249.93 1225.09 1238 C 1082.26 1237.03 939.431 1236.79 796.6 1237.27 L 619.381 1237.25 C 579.417 1237.24 538.168 1236.71 498.302 1238.16 L 497.329 1238.28 C 466.37 1237.51 433.64 1238.01 402.547 1237.98 z M 1165.11 1619.06 L 1190.06 1619.04 C 1191.34 1505.8 1190.47 1388.33 1190.05 1274.98 L 1164.79 1275 L 1164.98 1499.16 C 1164.97 1538.37 1164.25 1580.01 1165.11 1619.06 z M 467.299 1227.41 C 468.671 1229.25 470.819 1232.32 472.235 1233.96 L 508.088 1233.41 C 495.59 1222.23 491.128 1212.07 492.604 1194.86 L 491.814 1193.95 C 474.728 1204.34 466.993 1206.71 447.362 1200 C 452.497 1207.77 461.103 1220.43 467.299 1227.41 z M 1470.9 1364.62 C 1479.76 1364.51 1488.88 1364.5 1497.72 1364.15 C 1498.11 1353.01 1497.82 1341.99 1497.63 1330.85 C 1503.82 1331.75 1506.04 1331.8 1512.13 1331.73 C 1512.35 1325.04 1512.43 1319.69 1512.18 1313.01 L 1535 1313.03 L 1534.85 1281.98 L 1597.51 1282.08 C 1597.27 1292.46 1597.21 1302.84 1597.34 1313.22 L 1614.89 1313.24 L 1613.95 1331.83 L 1627.05 1332.01 C 1626.97 1340.46 1626.27 1355.99 1627.55 1363.5 C 1629.93 1365.14 1628.61 1364.5 1632.5 1364.07 C 1637.47 1359.47 1634.96 1342.79 1634.9 1335.75 L 1635.2 1332.56 C 1640.16 1330.8 1690.95 1332.09 1700.91 1331.69 C 1700.97 1341.99 1700.78 1353.89 1701.15 1364.06 C 1715.74 1364.64 1730.34 1364.7 1744.94 1364.23 C 1744.98 1326.87 1744.38 1288.23 1744.85 1250.98 L 1592.76 1251.06 C 1562.3 1251.06 1526.94 1251.83 1496.81 1250.9 C 1497.47 1257.79 1498.11 1266.24 1499.35 1272.96 C 1491.19 1272.79 1478.74 1272.98 1471 1272.3 C 1471.01 1302.92 1471.3 1334.04 1470.9 1364.62 z M 1003.1 759.248 C 1034.39 759.614 1028.78 770.597 1054.65 776.609 C 1055.67 769.177 1055.63 772.767 1059.8 767.002 C 1056.04 752.711 1025.21 738.579 1011.27 735.878 C 1012.65 747.293 1009.71 750.121 1003.1 759.248 z M 1753.54 1617.39 C 1764.16 1615.97 1771.68 1606.3 1770.43 1595.66 C 1769.18 1585.02 1759.63 1577.34 1748.97 1578.42 C 1741.92 1579.13 1735.8 1583.58 1732.96 1590.08 C 1730.12 1596.57 1731 1604.09 1735.27 1609.75 C 1739.53 1615.41 1746.52 1618.33 1753.54 1617.39 z M 1470.94 1536.97 L 1663.4 1536.9 L 1716.77 1537.01 C 1722.49 1537.03 1739.74 1537.42 1744.94 1536.61 L 1744.96 1520.03 C 1654.94 1519.17 1560.27 1521.93 1470.84 1519.44 L 1470.94 1536.97 z M 1311.99 1340.02 C 1312.03 1365.05 1309.81 1393.67 1308.64 1418.83 L 1302.89 1548.99 C 1299.56 1551.63 1298.63 1548.64 1293.44 1550.61 C 1291.63 1556.36 1293.31 1610.1 1293.48 1619.14 L 1332.59 1619.1 C 1334.37 1590.8 1355.1 1588.49 1375.97 1576.6 C 1383.85 1572.1 1390.6 1568.09 1397.97 1562.77 C 1397.63 1558.07 1398.12 1554.11 1395.74 1550.7 C 1392.26 1549.38 1389.49 1550.29 1385.73 1550.89 L 1358.69 1372.54 C 1354.55 1343.36 1350.06 1314.24 1345.2 1285.17 L 1343.34 1270.11 C 1334.22 1270.12 1323.75 1268 1316.05 1270.98 C 1314.11 1273.94 1314.86 1274.33 1314.89 1278.66 C 1314.37 1282.31 1313.95 1284.75 1313.96 1288.42 C 1313.72 1306.06 1312.76 1322.47 1311.99 1340.02 z M 440.974 951.662 C 450.08 953.956 481.548 960.419 486.412 946.942 C 487.972 942.622 481.356 937.542 480.284 932.804 C 479.929 932.169 478.356 929.812 477.588 929.7 C 464.859 927.841 454.814 926.885 443.013 921.441 C 438.945 919.523 437.623 918.46 433.304 918.6 C 430.322 920.28 430.47 919.643 428.972 923.896 L 430.323 924.914 C 433.657 933.411 437.302 943.43 440.974 951.662 z M 1204.58 839.103 C 1205.36 802.562 1209.09 763.439 1210.52 726.292 L 1209.94 724.7 C 1207.92 715.651 1210.63 704.787 1202.29 701.775 C 1201.19 705.393 1198.79 712.49 1198.34 715.915 C 1190.88 740.701 1186.23 766.374 1177.1 790.504 C 1169.85 809.673 1147.69 799.497 1133.4 795.54 C 1114.07 790.111 1094.78 784.549 1075.53 778.853 C 1086.34 796.358 1096 813.601 1103.89 832.628 C 1105.27 835.95 1108.1 843.048 1110.22 845.564 C 1112.37 844.088 1112.98 843.086 1114.65 841.085 C 1132.53 835.905 1159.17 853.135 1179.94 848.845 C 1180.64 845.914 1180.61 845.463 1180.7 842.416 C 1186.83 840.302 1197.64 840.217 1204.58 839.103 z M 1275.75 1560.95 C 1279.6 1561.04 1284.89 1561.78 1287.91 1559.85 C 1289.62 1556.83 1289.04 1553.54 1288.96 1549.92 C 1275.01 1549.69 1258.04 1549.02 1244.25 1549.5 C 1240.25 1549.54 1235.54 1549.14 1232.04 1550.76 C 1231.61 1554.69 1231.85 1555.85 1232.32 1559.85 C 1235.95 1562.23 1268.84 1561.03 1275.75 1560.95 z M 461.877 1412.27 C 518.099 1413.16 576.249 1412.32 632.688 1412.29 L 1008.5 1412.54 C 1057.93 1412.67 1108.42 1411.95 1157.74 1412.64 L 1160.24 1412.04 C 1162.11 1407.89 1161.27 1397.15 1161.11 1392.08 L 461.856 1392.03 L 461.877 1412.27 z M 1472.17 1607.56 C 1477.33 1595.5 1474.24 1586.87 1463.51 1579.36 C 1464.12 1585.35 1464.93 1606.36 1467.37 1609.95 C 1470.51 1609.93 1468.95 1610.16 1472.17 1607.56 z M 1744.89 1387.53 L 1471.03 1387.26 L 1470.83 1475.5 C 1470.71 1487.9 1469.54 1504.33 1470.04 1516.25 C 1485.68 1516.74 1501.19 1515.86 1516.85 1516.09 C 1516.81 1500.46 1516.16 1480.16 1516.89 1464.92 C 1574.89 1468.25 1638.67 1465.23 1697.02 1465.03 C 1697.12 1480.28 1696.67 1499.87 1697.46 1514.75 C 1701.97 1517.64 1736.23 1515.97 1744.94 1516.6 C 1745.55 1475.07 1745.36 1429.25 1744.89 1387.53 z M 467.338 1234.19 C 457.439 1219.71 447.008 1206.21 436.976 1191.92 L 356.397 1075.92 L 319.21 1022.17 C 314.986 1016.11 305.396 1001.65 300.651 996.775 L 271.66 1016.13 C 299.444 1061.24 336.586 1110.53 366.533 1154.8 C 379.665 1174.21 407.313 1216.96 421.236 1233.7 C 427.824 1233.62 434.689 1233.44 441.25 1233.51 C 449.821 1233.54 458.844 1233.39 467.338 1234.19 z M 1442.53 666.707 C 1459.08 665.487 1475.31 666.283 1491.83 666.069 C 1524.23 665.649 1557.21 666.888 1589.5 666.697 C 1628.83 666.139 1668.16 666.003 1707.49 666.291 C 1722.93 666.304 1747.3 665.431 1761.79 666.381 C 1760.09 734.669 1761.07 807.359 1761.1 875.961 L 1463.52 875.636 C 1464.1 881.086 1464.58 885.663 1465.6 891.088 L 1475.75 890.929 L 1670.97 890.984 L 1730.51 891.058 C 1741.58 891.085 1752.56 891.325 1763.62 890.681 C 1774.95 890.021 1776.65 883.018 1776.95 873.058 C 1777.36 859.748 1777.1 846.332 1777.04 833.006 L 1776.86 758.061 L 1777.02 698.837 C 1777.05 687.357 1777.46 675.69 1776.36 664.275 C 1775.65 656.844 1770.27 652.551 1762.96 652.237 C 1749.79 651.671 1736.55 651.853 1723.36 651.842 L 1653.62 651.822 L 1429.91 652.009 C 1436.52 657.474 1437.58 659.568 1442.53 666.707 z M 1457.98 1549.9 C 1438.92 1549.13 1419.96 1550.26 1401.05 1549.91 C 1401.05 1553.61 1400.61 1557.21 1402.4 1560.34 C 1410.1 1561.84 1448.12 1561.03 1458.48 1560.96 L 1457.98 1549.9 z M 849.917 1123.2 C 820.298 1130.63 790.085 1139.53 760.415 1145.96 C 768.22 1151.55 770.463 1152.33 772.618 1161.51 C 778.883 1163.94 971.99 1161.82 994.75 1162.35 L 1049 1162.64 C 1059.88 1162.78 1074.92 1163.53 1085.23 1162.93 C 1073.46 1158.6 1050.57 1155.77 1037.56 1153.81 C 1014.27 1150.42 991.001 1146.85 967.763 1143.11 C 945.81 1139.47 923.908 1135.52 902.063 1131.27 C 887.839 1128.47 863.656 1121.91 849.917 1123.2 z M 1193.3 1611.16 C 1193.28 1614.05 1192.68 1616.81 1194.04 1618.63 C 1219.57 1620.21 1263.7 1619.23 1290.25 1618.83 C 1290.07 1615.65 1290.58 1613.22 1288.97 1611.31 C 1258.01 1610.43 1224.45 1611.1 1193.3 1611.16 z M 1461.48 1618.06 C 1461.84 1614.6 1462.53 1613.97 1461.22 1611.4 C 1422.07 1609.01 1375.8 1612.98 1336.52 1611.12 C 1336.22 1613.86 1335.53 1616.2 1336.82 1618.48 C 1347.7 1619.67 1377.2 1619.16 1388.98 1618.93 C 1411.33 1618.47 1439.6 1619.7 1461.48 1618.06 z M 981.944 732.833 C 975.755 736.158 945.448 751.369 943.566 755.905 C 945.03 757.646 944.377 757.144 946.432 758.206 C 953.527 754.981 980.905 742.739 984.694 737.72 C 984.548 734.112 985.217 735.553 982.955 733.11 L 981.944 732.833 z M 1083.79 1154.48 C 1083.94 1159.03 1083.15 1158.74 1085.44 1161.46 C 1090.51 1163.55 1096.37 1161.88 1102.44 1161.96 L 1083.79 1154.48 z M 910.848 758.527 C 907.451 768.075 912.567 777.195 919.591 783.686 L 924.285 784.877 C 924.48 780.523 914.217 761.554 910.848 758.527 z M 978.472 808.585 C 984.654 804.484 998.684 798.237 1000.79 793.518 C 999.958 788.594 997.452 788.59 992.972 787.24 C 984.1 791.22 969.974 794.682 973.555 806.378 C 976.183 808.887 974.641 808.088 978.472 808.585 z M 1467.61 1573.41 C 1467.91 1565.56 1468.96 1558.49 1467.04 1551.06 C 1464.51 1548.85 1465.75 1549.81 1461.73 1549.1 C 1461.76 1556.12 1461.09 1564.78 1462.81 1571.22 C 1465.22 1573.61 1463.78 1572.71 1467.61 1573.41 z M 1315.71 1088.45 C 1316.46 1095.91 1318.26 1115.34 1321.65 1121.01 C 1323.26 1117.1 1318.07 1089.32 1317 1083.44 L 1315.21 1065.81 C 1309.36 1060.49 1302.7 1057.42 1296.44 1052.51 C 1302.38 1058.7 1305.79 1061.35 1312.67 1066.63 C 1313.69 1073.88 1314.78 1081.2 1315.71 1088.45 z M 542.25 1162.35 L 544.539 1161.49 C 541.768 1159.24 530.263 1156.78 525.791 1155.01 C 518.059 1151.95 511.004 1145.61 504.092 1142.41 C 507.877 1152.25 508.928 1155.7 509.524 1166.54 C 522.417 1161.19 528.434 1161.59 542.25 1162.35 z M 1320.04 1147.6 C 1321.78 1145.08 1322.47 1146.47 1323.97 1142.44 C 1323.35 1138.9 1323.55 1137.22 1321.63 1134.48 C 1320.43 1138.34 1320.33 1143.47 1320.04 1147.6 z M 1536.93 1227.08 C 1541.04 1227.05 1551.88 1227.24 1555.43 1226.75 L 1555.49 1212.41 L 1536.27 1212.21 C 1536.51 1217.07 1536.85 1222.24 1536.93 1227.08 z M 1148.45 962.315 C 1154.91 981.337 1175.56 1001.92 1194.11 1009.75 C 1196.16 979.14 1197.88 948.506 1199.27 917.855 C 1193.81 918.501 1191.22 920.062 1188.24 915.346 C 1188.39 912.753 1188.86 910.942 1187.49 908.832 C 1176.76 905.633 1148.26 918.392 1131.62 921.166 C 1134.83 931.224 1138.9 941.15 1142.77 950.986 C 1144.4 954.446 1146.45 959.195 1148.45 962.315 z M 1007.48 813.762 C 1000.69 816.992 995.909 818.919 991.322 825.128 C 990.706 828.269 990.472 826.821 992.075 829.614 C 995.161 831.24 995.02 831.099 998.525 831.513 C 1003.75 828.018 1014.3 822.581 1013.01 815.34 C 1011.27 814.066 1010.17 813.473 1007.48 813.762 z M 1003.16 800.101 C 995.047 801.531 986.451 806.473 981.578 813.115 C 980.774 817.24 982.362 819.114 986.701 820.274 C 995.294 813.842 1008.37 809.588 1009.82 803.669 L 1009.04 801.415 C 1007.09 800.862 1005.1 800.092 1003.16 800.101 z M 982.407 777.189 C 975.2 778.286 963.897 781.359 963.082 789.981 C 964.937 793.669 966.12 794.206 970.062 795.396 C 976.622 792.044 981.751 789.808 986.888 784.385 C 987.943 780.968 988.112 782.541 986.566 779.491 C 984.906 778.419 984.199 777.7 982.407 777.189 z M 1670.92 1212.02 C 1670.19 1217.97 1669.91 1221.3 1669.82 1227.38 C 1675.95 1227.21 1682.73 1226.89 1688.8 1227.02 C 1690.16 1220.84 1689.82 1218.94 1688.85 1212.65 L 1670.92 1212.02 z M 1706 1180.43 C 1706.04 1172.36 1708 1134.31 1702.28 1130.47 C 1694.48 1125.22 1671.49 1126.76 1660.84 1126.81 L 1608 1126.87 L 1608.01 1180.84 C 1634.86 1179.85 1678.71 1179.79 1706 1180.43 z M 1743.64 1384.76 C 1745.63 1382 1744.95 1371.88 1744.94 1367.97 L 1553.36 1368 C 1526.55 1367.98 1497.3 1366.99 1471.01 1367.27 L 1470.95 1384.98 C 1527.8 1384.04 1584.65 1383.73 1641.5 1384.08 C 1674.84 1384.17 1710.58 1385.12 1743.64 1384.76 z M 1494.54 1230.08 C 1495.03 1235.75 1495.43 1241.47 1496.27 1247.09 C 1554.22 1246.36 1613.59 1246.97 1671.65 1247.02 L 1722.21 1247.1 C 1728.03 1247.12 1739.74 1247.66 1744.8 1247.18 L 1745.01 1230.99 L 1585.17 1230.96 C 1557.91 1230.99 1521.17 1232.02 1494.54 1230.08 z M 1785.7 1171.18 C 1766.39 1176.94 1750.58 1191.49 1749.21 1212.7 C 1747.83 1234.11 1748.7 1256.56 1748.77 1278.12 L 1748.81 1389.48 C 1748.88 1443.67 1748.66 1497.95 1748.61 1552.14 C 1748.6 1558.9 1748.2 1565.75 1748.6 1572.5 C 1755.58 1572.68 1758.11 1572.69 1765.01 1571.72 L 1764.99 1552.59 L 1764.96 1320.76 L 1765.01 1250.85 C 1765.03 1234.18 1761.9 1207.19 1773.98 1194.9 C 1785.85 1182.82 1808.3 1186.18 1823.95 1185.88 C 1824.03 1180.9 1824.17 1175.91 1823.96 1170.94 C 1813.26 1170.91 1795.87 1170.37 1785.7 1171.18 z M 1117.25 843.062 C 1113.66 846.058 1114.67 844.293 1113.26 848.062 C 1116.2 854.844 1128.86 857.524 1135.67 859.747 L 1133.92 860.206 C 1119.75 863.849 1084.67 864.838 1079.55 872.595 C 1083.86 883.386 1119.25 877.254 1128.73 877.087 C 1114.39 882.558 1105.68 883.147 1090.58 883.262 C 1088.91 883.275 1088.2 884.699 1087.44 885.919 C 1091.84 899.835 1121.26 889.821 1124.89 894.076 C 1120.71 899.313 1100.92 894.183 1094.02 899.398 L 1094.19 901.39 C 1097.03 903.735 1097.09 903.965 1100.6 905.478 C 1110.66 907.456 1125.11 905.918 1128.87 907.288 L 1129.25 908.243 C 1121.4 912.801 1107.99 907.186 1104.65 912.916 C 1105.81 915.11 1106.81 916.276 1109.48 916.878 C 1137.27 923.146 1159.66 905.867 1187.29 904.1 C 1185.45 886.998 1183.49 869.91 1181.41 852.837 C 1158.35 854.893 1142.74 845.591 1117.25 843.062 z M 457.963 1275.79 C 450.106 1275.75 440.731 1275.96 433.043 1275.14 L 432.964 1495.86 C 432.967 1536.28 432.335 1578.8 433.11 1619.02 C 441.57 1618.93 450.03 1618.92 458.49 1619.01 L 458.197 1388.45 C 458.198 1351.44 458.821 1312.64 457.963 1275.79 z M 1535.6 1140.48 C 1534.07 1146.87 1535.09 1185.74 1535.01 1195.01 L 1591.09 1195.03 C 1590.95 1177.02 1590.96 1159 1591.1 1140.99 C 1576.61 1141.01 1549.22 1141.8 1535.6 1140.48 z M 1251.98 913.574 C 1237.52 915.062 1217.77 916.7 1203.1 917.244 L 1195.27 1066.01 C 1193.67 1095.96 1192.47 1132.09 1189.84 1161.68 C 1224.53 1163.96 1240.03 1193.15 1220.44 1223.93 C 1218.7 1226.67 1211.45 1231.52 1213.18 1233.78 C 1218.32 1233.86 1223.74 1233.86 1228.84 1234.05 L 1229.07 1270.55 C 1234.64 1270.46 1240.1 1270.32 1245.66 1270.57 C 1245.15 1241.56 1247.09 1208.68 1247.88 1179.5 C 1250.15 1113.27 1251.67 1047.02 1252.41 980.757 C 1252.58 960.573 1253.73 933.888 1252.84 914.143 L 1251.98 913.574 z"/>
<path transform="translate(0,0)" fill="rgb(39,72,248)" d="M 923.062 957.451 C 937.396 961.816 948.226 989.473 948.741 1003.47 C 949.195 1015.84 946.873 1031.75 938.588 1041.36 L 934.542 1039.68 C 933.41 1038.21 932.246 1037.28 932.707 1035.1 C 935.872 1020.1 940.453 1013.54 938.315 997.427 C 936.61 984.582 922.047 972.561 919.385 963.481 C 920.221 959.416 919.758 960.819 923.062 957.451 z"/>
<path transform="translate(0,0)" fill="rgb(39,72,248)" d="M 900.779 976.242 C 921.247 980.969 923.486 1011.97 914.37 1028.34 C 901.942 1026.12 911.189 1013.35 910.263 1003.66 C 908.931 989.732 895.923 990.57 900.779 976.242 z"/>
<path transform="translate(0,0)" fill="rgb(178,188,248)" d="M 914.715 785.519 L 916.26 787.371 C 915.731 806.865 912.526 827.439 909.91 846.843 L 898.977 927.473 L 890.769 988.316 C 888.667 1004.07 886.846 1022.39 882.186 1037.42 L 878.247 1036.6 C 870.094 1034.57 864.952 1033.53 856.669 1032.75 C 853.313 1014.53 840.821 1007.49 822.778 1010.55 C 809.333 1012.83 805.041 1032.3 802.299 1033.46 C 795.138 1034.08 788.331 1034.64 781.15 1034.96 C 780.593 1030.28 779.658 1025.76 780.633 1021.23 C 781.355 1004.17 803.846 970.549 813.418 954.351 C 832.032 922.84 850.879 891.467 869.957 860.234 L 898.752 811.648 C 902.946 804.528 909.965 791.686 914.715 785.519 z"/>
<path transform="translate(0,0)" fill="rgb(215,221,249)" d="M 780.633 1021.23 C 798.797 996.347 825.745 975.061 858.211 997.698 C 872.065 1007.36 874.426 1020.09 878.776 1035.09 L 878.247 1036.6 C 870.094 1034.57 864.952 1033.53 856.669 1032.75 C 853.313 1014.53 840.821 1007.49 822.778 1010.55 C 809.333 1012.83 805.041 1032.3 802.299 1033.46 C 795.138 1034.08 788.331 1034.64 781.15 1034.96 C 780.593 1030.28 779.658 1025.76 780.633 1021.23 z"/>
<path transform="translate(0,0)" fill="rgb(32,35,77)" d="M 802.299 1033.46 C 805.041 1032.3 809.333 1012.83 822.778 1010.55 C 840.821 1007.49 853.313 1014.53 856.669 1032.75 C 864.952 1033.53 870.094 1034.57 878.247 1036.6 L 882.186 1037.42 L 882.615 1037.77 C 876.296 1040.29 876.252 1054.73 872.164 1061.17 C 867.97 1067.77 862.933 1073.21 856.369 1077.43 C 845.166 1084.76 831.43 1087.13 818.423 1083.96 C 791.979 1077.32 788.106 1058.2 780.181 1037.19 C 779.661 1035.81 776.633 1035.83 775.039 1035.57 L 781.15 1034.96 C 788.331 1034.64 795.138 1034.08 802.299 1033.46 z"/>
<path transform="translate(0,0)" fill="rgb(39,72,248)" d="M 802.299 1033.46 C 805.041 1032.3 809.333 1012.83 822.778 1010.55 C 840.821 1007.49 853.313 1014.53 856.669 1032.75 C 858.261 1069.61 808.666 1078.67 803.449 1034.39 L 802.299 1033.46 z"/>
<path transform="translate(0,0)" fill="rgb(39,72,248)" d="M 1540.01 693.303 C 1542.54 693.617 1542.54 693.734 1545.01 694.523 C 1547.79 698.047 1570.75 811.379 1575 828.388 C 1577.27 816.352 1604.15 708.06 1606.96 703.938 C 1610.73 703.133 1608.94 703.031 1612.53 704.109 C 1616.45 711.473 1620.66 733.037 1623.29 742.274 C 1630.75 768.505 1636.47 797.428 1644.07 823.286 C 1645.37 811.539 1654.42 783.527 1658.89 772.06 C 1678.24 771.892 1704.04 771.587 1723.84 772.553 C 1726.74 772.695 1727.17 778.468 1725.46 781.094 C 1705.81 781.368 1684.7 782.073 1665.17 781.714 C 1664.68 783.676 1664.15 785.63 1663.58 787.573 C 1660.87 797.12 1650.25 840.599 1643.48 844.375 C 1640.06 843.736 1641.59 844.453 1638.92 841.817 C 1628.44 805.871 1620.71 765.55 1609.95 729.183 C 1604.93 747.055 1581.56 847.659 1576.9 854.714 C 1573.63 856.091 1575.2 856.079 1572.06 855.083 C 1569.3 852.588 1565.94 833.535 1564.94 828.389 C 1557.81 791.761 1548.3 755.041 1541.98 718.321 C 1536.5 739.07 1529.8 760.322 1524.09 781.256 C 1515.53 781.937 1470.73 783.154 1464.99 780.258 C 1464.21 776.799 1464.19 777.039 1464.84 773.564 C 1469.23 771.088 1509.67 771.739 1516.26 772.725 C 1520.15 759.962 1523.82 747.875 1527.3 735.1 C 1529.86 725.702 1536.07 700.633 1540.01 693.303 z"/>
<path transform="translate(0,0)" fill="rgb(39,72,248)" d="M 528.543 1165.42 C 545.178 1166.06 560.221 1165.63 576.757 1165.71 L 723.596 1165.04 L 1009.97 1165.92 L 1137.84 1165.94 C 1156.18 1166 1181.55 1165.13 1199.4 1166.44 C 1233.54 1168.97 1236.5 1230.42 1195.49 1233.69 L 750.966 1233.83 L 601.488 1233.86 C 575.655 1233.87 538.792 1234.97 514.072 1232.77 C 482.645 1212.21 491.193 1167.47 528.543 1165.42 z"/>
<path transform="translate(0,0)" fill="url(#Gradient3)" d="M 1438.03 791.555 C 1445.79 801.159 1438.81 806.182 1449.33 811.191 L 1449.78 811.146 C 1451.22 814.698 1452.76 818.331 1454 821.947 L 1455.65 822.62 C 1459.49 861.022 1463.03 899.455 1466.26 937.914 C 1463.23 939.574 1464.63 939.586 1461.95 938.825 L 1460.81 939.788 C 1460.93 943.736 1461.93 944.408 1457.86 946.332 C 1455.6 944.935 1453.92 943.733 1451.47 942.713 C 1447.11 947.018 1452.51 950.166 1440.68 950.645 C 1439.19 950.705 1431.8 945.351 1430.4 945.378 C 1426.06 945.464 1417.98 947.411 1413.47 948.234 C 1409.76 948.91 1400.06 948.876 1398.14 949.35 L 1397.62 951.418 C 1399.12 952.275 1400.65 953.087 1402.21 953.852 L 1367.06 954.203 C 1367.32 978.988 1367.78 1006.91 1371.26 1031.26 C 1375.04 1057.71 1407.77 1051.84 1426.51 1051.8 C 1437.61 1051.77 1445.91 1044.15 1449.94 1034.37 L 1451.21 1035.1 C 1454.42 1031.76 1454.55 1031.63 1458.83 1029.75 L 1459.9 1029.96 C 1463.9 1030.78 1468.4 1033.47 1471.16 1033.6 C 1472.41 1032.36 1473.47 1031.27 1474.65 1029.97 L 1495.23 1269.63 C 1451.21 1269.91 1391.38 1272.03 1348.55 1269.02 L 1346.02 1211.38 L 1347 1212.23 C 1349.25 1208.6 1348.11 1184.95 1347.16 1179.95 C 1347.11 1175.76 1347.16 1175.15 1346.1 1171.16 L 1344.21 1170.13 C 1339.61 1082.22 1337.05 993.55 1333.11 905.547 C 1351.41 904.192 1362.34 901.282 1378.63 893.361 C 1378.27 895.807 1378.08 895.803 1378.85 898.096 C 1387.11 900.495 1396.8 884.801 1402.64 882.925 L 1402.82 885.531 L 1404.15 884.441 C 1404.03 881.326 1403.71 880.585 1403.03 877.572 L 1399.12 877.824 C 1420.97 851.71 1429.07 823.899 1438.03 791.555 z"/>
<path transform="translate(0,0)" fill="rgb(254,254,254)" d="M 1350.96 629.135 C 1375.63 632.897 1408.46 638.282 1428.18 655.366 C 1440.49 666.237 1448.13 681.434 1449.53 697.797 C 1452.6 735.653 1427.16 842.943 1399.84 872.406 C 1389.59 883.465 1380.18 891.313 1365.53 895.966 C 1339.28 904.305 1306.16 905.693 1278.53 907.981 L 1191.21 915.254 C 1190.58 903.674 1183.06 851.439 1184.67 845.337 L 1187.27 844.42 C 1231.5 837.327 1284.31 835.651 1327.9 823.95 C 1335.42 821.929 1343.28 806.387 1345.24 799.155 C 1348.64 786.641 1373 706.969 1369.88 700.619 L 1370.95 701.336 L 1370.87 700.768 L 1369.77 700.805 C 1366.22 706.348 1363.52 722.344 1361.51 729.338 C 1354.2 754.78 1346.94 795.152 1333.32 817.522 C 1341.66 784.297 1351.37 749.736 1359.18 716.69 C 1353.95 711.536 1348.87 706.23 1343.95 700.779 C 1349.79 694.047 1354.11 688.582 1359.43 681.421 C 1357.16 663.907 1354.34 646.47 1350.96 629.135 z"/>
<path transform="translate(0,0)" fill="rgb(39,72,248)" d="M 310.719 911.141 C 326.29 909.76 337.851 911.067 347.554 924.672 C 375.502 963.857 402.448 1003.77 430.161 1043.13 C 436.797 1051.68 442.109 1063.94 448.745 1072.19 C 461.223 1087.72 472.755 1103.36 484.187 1119.68 C 490.433 1128.63 498.191 1136.97 502.554 1147.08 C 512.552 1170.25 495.91 1190.69 475.501 1199.3 C 462.039 1201.91 447.789 1200.61 438.99 1188.99 C 428.056 1174.56 418.054 1159.46 407.795 1144.53 L 355.93 1069.66 L 311.445 1005.41 C 301.111 990.625 288.162 973.867 280.471 957.805 C 277.992 952.627 279.988 938.963 282.903 933.409 C 289.491 920.858 297.971 915.435 310.719 911.141 z"/>
<path transform="translate(0,0)" fill="rgb(39,72,248)" d="M 488.634 938.791 C 508.52 941.923 532.13 949.132 551.478 955.038 C 570.827 960.943 571.617 992.637 578.586 999.292 C 597.997 1017.83 630.196 1034.28 654.05 1046.98 C 643.103 1061.16 620.304 1096.87 609.651 1113.3 C 597.312 1110.82 584.516 1107.76 572.201 1104.96 C 569.172 1104.18 560.004 1101.42 557.502 1100.7 C 545.672 1097.33 523.149 1056.83 517.901 1045.5 C 518.566 1044.16 520.772 1041.58 520.298 1040.72 C 511.586 1024.82 497.726 1002.93 487.359 988.796 C 468.955 963.697 443.416 955.093 421.915 982.648 C 425.527 969.643 429.028 964.385 438.051 954.689 C 451.703 956.742 497.595 967.796 488.634 938.791 z"/>
<path transform="translate(0,0)" fill="rgb(39,72,248)" d="M 1332.99 630.083 C 1329.92 696.201 1325.88 753.793 1328.33 821.018 C 1315.64 826.111 1273.37 830.836 1257.88 832.493 C 1258.61 776.3 1263.6 717.718 1266.74 661.47 C 1267.2 653.244 1268.17 644.749 1269.23 636.591 C 1269.47 634.692 1273.53 633.291 1275.11 632.517 C 1277.5 659.531 1300.22 658.06 1318.75 645.532 C 1325.51 640.957 1328.43 636.593 1332.99 630.083 z"/>
<path transform="translate(0,0)" fill="rgb(254,254,254)" d="M 1231.63 516.851 C 1257.65 520.42 1274.49 513.445 1299.56 511.867 C 1309.13 511.264 1310.62 528.373 1315.47 534.553 C 1323.41 536.429 1328.59 527.836 1337.5 532.183 C 1341.71 536.545 1342.15 541.067 1342.3 546.894 C 1342.7 562.458 1334.8 556.844 1327.43 564.493 C 1325.32 566.678 1326.61 572.144 1326.97 575.671 C 1327.77 592.912 1330.92 609.683 1331.69 626.782 C 1328.2 632.855 1326.35 635.614 1320.95 640.438 C 1306.98 652.92 1278.24 659.407 1277.72 632.184 L 1277.64 620.569 C 1294.39 612.518 1301.91 606.198 1311.5 589.994 C 1305.23 594.418 1300.47 599.43 1293.01 601.919 C 1231.89 622.305 1232.02 555.009 1231.63 516.851 z"/>
<path transform="translate(0,0)" fill="rgb(4,4,5)" d="M 1251.3 536.654 C 1252.75 541.598 1251.48 549.583 1250.14 554.478 C 1246.04 569.484 1252.5 565.098 1254.94 568.46 L 1253.58 571.11 C 1250.53 570.27 1249.31 570.207 1247 568.022 C 1245.21 563.889 1246.03 558.338 1247.07 554.044 C 1248.43 548.235 1249.84 542.438 1251.3 536.654 z"/>
<path transform="translate(0,0)" fill="rgb(4,4,5)" d="M 1270.66 570.721 L 1271.73 571.852 C 1272 580.462 1262.15 582.266 1255.31 582.382 C 1254.34 580.799 1254.52 581.678 1254.88 579.719 L 1256.58 579.458 C 1264.51 578.158 1266.28 576.948 1270.66 570.721 z"/>
<path transform="translate(0,0)" fill="rgb(4,4,5)" d="M 1263.26 538.262 C 1266.12 538.606 1265.93 538.524 1268.36 540.067 C 1269.95 543.29 1268.97 546.091 1268.38 549.795 C 1265.72 548.951 1266.56 549.314 1264.24 547.757 C 1262.28 544.73 1263.01 542.006 1263.26 538.262 z"/>
<path transform="translate(0,0)" fill="rgb(4,4,5)" d="M 1238.61 540.394 C 1242.43 541.641 1241.07 540.514 1243.17 543.448 C 1243.75 546.897 1242.7 548.865 1241.57 552.195 C 1238.89 550.42 1239.08 550.527 1237.36 547.788 C 1236.79 544.084 1237.23 543.834 1238.61 540.394 z"/>
<path transform="translate(0,0)" fill="rgb(39,72,248)" d="M 1706.11 1184.02 C 1706.38 1193.3 1708.53 1202.03 1700.38 1207.95 C 1686.87 1210.38 1531.69 1210.52 1524.89 1207.67 C 1522.94 1206.85 1521.25 1202.72 1520.71 1200.72 C 1518.9 1194.09 1518.82 1135.7 1521.49 1132.02 C 1523.9 1128.71 1528.35 1127.27 1532.23 1126.67 C 1552.46 1123.51 1581.58 1128.53 1603.34 1126.14 L 1605.33 1125.9 L 1608 1126.87 L 1608.01 1180.84 L 1605.46 1182.72 C 1609.48 1184.97 1694.21 1184.03 1706.11 1184.02 z M 1535.01 1195.01 L 1591.09 1195.03 C 1590.95 1177.02 1590.96 1159 1591.1 1140.99 C 1576.61 1141.01 1549.22 1141.8 1535.6 1140.48 C 1534.07 1146.87 1535.09 1185.74 1535.01 1195.01 z"/>
<path transform="translate(0,0)" fill="rgb(32,35,77)" d="M 1605.33 1125.9 L 1608 1126.87 L 1608.01 1180.84 L 1605.46 1182.72 C 1604.57 1172.29 1604.13 1135.04 1605.33 1125.9 z"/>
<path transform="translate(0,0)" fill="rgb(4,4,5)" d="M 1556.77 1137.47 C 1563.63 1137.27 1587.66 1136.11 1592.24 1139.42 C 1595.49 1147.95 1594.37 1187.16 1594.05 1198.05 L 1568.75 1198.24 C 1558.81 1198.23 1542.1 1198.56 1532.7 1197.05 C 1531.36 1182.53 1531.96 1152.98 1532.25 1138.04 L 1556.77 1137.47 z M 1535.01 1195.01 L 1591.09 1195.03 C 1590.95 1177.02 1590.96 1159 1591.1 1140.99 C 1576.61 1141.01 1549.22 1141.8 1535.6 1140.48 C 1534.07 1146.87 1535.09 1185.74 1535.01 1195.01 z"/>
<path transform="translate(0,0)" fill="rgb(39,72,248)" d="M 1531.25 1468.51 C 1550.62 1467.56 1573.68 1468.07 1593.26 1468.05 C 1626.85 1467.88 1660.44 1468.04 1694.02 1468.53 C 1694.13 1484.42 1694.07 1500.32 1693.83 1516.21 L 1678.5 1516.43 L 1519.93 1516.42 L 1520.05 1468.53 L 1531.25 1468.51 z"/>
<path transform="translate(0,0)" fill="rgb(4,4,5)" d="M 1402.21 953.852 C 1410.38 953.98 1444.06 952.515 1448.78 954.783 L 1449.96 957.696 C 1449.72 974.481 1452.92 1022.84 1449.94 1034.37 C 1445.91 1044.15 1437.61 1051.77 1426.51 1051.8 C 1407.77 1051.84 1375.04 1057.71 1371.26 1031.26 C 1367.78 1006.91 1367.32 978.988 1367.06 954.203 L 1402.21 953.852 z M 1370.84 973.091 C 1371.49 995.673 1366.06 1040.37 1390.64 1048.87 C 1412.72 1050.11 1448.18 1054.92 1448.35 1023.89 C 1448.45 1006.58 1446.73 989.349 1446.9 972.161 L 1430.68 972.473 C 1410.74 972.923 1390.79 973.129 1370.84 973.091 z M 1370.69 957.037 C 1370.65 961.118 1370.06 964.832 1372.39 968.019 C 1378.15 971.929 1386.69 969.148 1395.37 969.141 L 1446.47 969.017 C 1446.5 964.929 1446.65 960.414 1446.39 956.368 C 1438.7 956.385 1430.76 956.295 1423.1 956.466 C 1405.63 956.839 1388.16 957.029 1370.69 957.037 z"/>
<path transform="translate(0,0)" fill="url(#Gradient2)" d="M 1430.68 972.473 L 1446.9 972.161 C 1446.73 989.349 1448.45 1006.58 1448.35 1023.89 C 1448.18 1054.92 1412.72 1050.11 1390.64 1048.87 C 1366.06 1040.37 1371.49 995.673 1370.84 973.091 C 1390.79 973.129 1410.74 972.923 1430.68 972.473 z"/>
<path transform="translate(0,0)" fill="rgb(39,72,248)" d="M 445.441 969.149 C 480.67 966.985 501.619 1014.64 518.264 1041.03 L 481.523 1063.77 C 473.18 1068.46 464.679 1072.94 457.052 1078.71 C 437.182 1053.47 395.141 986.149 445.441 969.149 z"/>
<path transform="translate(0,0)" fill="rgb(39,72,248)" d="M 1316.23 907.58 L 1329.87 906.668 C 1331.91 935.708 1332.19 965.592 1333.88 995.029 C 1312.13 995.375 1293.46 995.163 1271.75 993.844 C 1266.22 993.447 1260.68 993.115 1255.13 992.849 C 1255.82 966.175 1256.16 939.494 1256.16 912.811 C 1274.64 910.679 1296.94 909.484 1316.23 907.58 z"/>
<path transform="translate(0,0)" fill="rgb(254,254,254)" d="M 1202.29 701.775 C 1203.38 685.673 1214.95 665.828 1227.42 655.101 C 1234.09 649.309 1241.75 644.767 1250.03 641.691 C 1245.38 655.622 1240.9 669.606 1236.57 683.641 C 1241.06 689.572 1245.59 695.472 1250.16 701.341 C 1246.46 705.62 1238.25 714.774 1235.33 719.25 L 1247.45 787.794 C 1249.58 799.592 1254.06 821.557 1254.57 832.976 C 1239.77 834.941 1221.63 836.774 1207.2 839.267 L 1212.59 746.3 C 1213.03 738.878 1215.61 708.286 1214.4 702.893 C 1211.72 705.876 1211.43 720.823 1210.52 726.292 L 1209.94 724.7 C 1207.92 715.651 1210.63 704.787 1202.29 701.775 z"/>
<path transform="translate(0,0)" fill="rgb(4,4,5)" d="M 1683.8 1151.52 C 1687.97 1150.92 1691.86 1153.74 1692.59 1157.88 C 1693.32 1162.02 1690.64 1166 1686.52 1166.87 C 1683.73 1167.46 1680.85 1166.48 1678.99 1164.32 C 1677.13 1162.16 1676.6 1159.16 1677.6 1156.49 C 1678.61 1153.83 1680.98 1151.92 1683.8 1151.52 z"/>
<path transform="translate(0,0)" fill="rgb(39,72,248)" d="M 1681.3 1154.34 C 1684.79 1154.75 1684.84 1154.56 1687.88 1156.6 C 1689.54 1159.7 1689.2 1160.53 1688.89 1164.02 C 1685.64 1163.58 1684.17 1163.61 1681.28 1161.98 C 1679.87 1158.41 1680.52 1158.83 1681.3 1154.34 z"/>
<path transform="translate(0,0)" fill="rgb(4,4,5)" d="M 1653.82 1152.44 C 1656.31 1151.12 1659.33 1151.27 1661.68 1152.82 C 1664.04 1154.37 1665.36 1157.08 1665.13 1159.89 C 1664.9 1162.7 1663.15 1165.17 1660.58 1166.31 C 1656.78 1168.01 1652.32 1166.39 1650.49 1162.65 C 1648.67 1158.9 1650.14 1154.39 1653.82 1152.44 z"/>
<path transform="translate(0,0)" fill="rgb(39,72,248)" d="M 1654.86 1155.63 C 1656.99 1154.23 1659.85 1154.82 1661.27 1156.95 C 1662.68 1159.07 1662.12 1161.94 1660.01 1163.37 C 1657.87 1164.83 1654.95 1164.26 1653.52 1162.1 C 1652.09 1159.95 1652.69 1157.04 1654.86 1155.63 z"/>
<path transform="translate(0,0)" fill="rgb(39,72,248)" d="M 1626.92 1152.65 C 1630.6 1150.51 1635.31 1151.77 1637.43 1155.45 C 1639.55 1159.14 1638.27 1163.85 1634.57 1165.95 C 1630.9 1168.04 1626.23 1166.77 1624.12 1163.11 C 1622.02 1159.45 1623.27 1154.77 1626.92 1152.65 z"/>
<path transform="translate(0,0)" fill="rgb(254,254,254)" d="M 454.188 823.308 C 471.822 828.572 475.617 834.76 482.619 850.851 C 484.674 855.46 486.659 860.1 488.574 864.768 C 494.944 893.333 494.125 914.851 459.771 920.639 C 455.176 921.414 446.281 919.81 443.013 921.441 C 438.945 919.523 437.623 918.46 433.304 918.6 C 430.322 920.28 430.47 919.643 428.972 923.896 L 423.248 906.321 L 421.93 906.284 L 419.988 906.202 C 411.673 905.901 411.938 904.652 406.126 899.76 C 396.523 891.676 403.683 876.383 415.647 879.664 C 420.305 880.942 431.168 873.175 434.828 869.805 C 448.757 856.979 453.253 841.436 454.188 823.308 z"/>
<path transform="translate(0,0)" fill="rgb(4,4,5)" d="M 481.441 869.513 C 483.104 872.107 483.034 871.969 483.774 874.965 L 482.584 876.802 L 479.19 877.491 L 477.942 876.641 C 478.56 875.666 479.318 874.472 480.217 873.056 C 477.975 868.723 469.633 858.34 470.177 853.56 L 471.976 854.908 C 474.219 858.901 478.278 866.6 481.441 869.513 z"/>
<path transform="translate(0,0)" fill="rgb(4,4,5)" d="M 482.048 886.36 L 482.7 887.722 L 481.629 889.38 C 476.092 892.36 472.487 892.389 466.499 890.86 C 466.108 889.394 466.292 889.598 466.473 887.977 C 473.559 888.192 475.31 889.39 482.048 886.36 z"/>
<path transform="translate(0,0)" fill="rgb(254,254,254)" d="M 1336.06 627.843 C 1340.05 628.093 1344.41 628.686 1348.42 629.138 C 1351.07 646.509 1354.32 663.27 1356.38 680.784 C 1351.25 688.07 1345.77 694.102 1339.92 700.78 C 1344.23 706.217 1351.02 712.638 1356.08 717.697 C 1351.63 738.132 1344.04 764.144 1338.58 784.82 L 1331.6 813.653 C 1330.19 798.615 1330.76 776.087 1330.9 760.577 C 1331.68 716.301 1333.4 672.046 1336.06 627.843 z"/>
<path transform="translate(0,0)" fill="rgb(254,254,254)" d="M 1253.78 640.15 C 1257.92 638.665 1262.15 637.083 1266.31 635.675 C 1260.86 691.449 1257.42 747.401 1256.01 803.424 L 1253.3 804.053 C 1248.48 779.128 1241.29 744.047 1238.4 719.368 C 1243.78 713.559 1249.04 707.639 1254.17 701.61 C 1250.26 696.818 1243.24 688.509 1240.13 683.31 C 1242.33 673.025 1249.58 649.81 1253.78 640.15 z"/>
<path transform="translate(0,0)" fill="rgb(39,72,248)" d="M 1323.97 1142.44 C 1330.6 1183.89 1336.66 1225.42 1342.14 1267.03 L 1315.13 1266.96 C 1316.53 1227.26 1319 1187.19 1320.04 1147.6 C 1321.78 1145.08 1322.47 1146.47 1323.97 1142.44 z"/>
<path transform="translate(0,0)" fill="rgb(163,160,167)" fill-opacity="0.0117647" d="M 1197 1372.55 C 1201.25 1376.6 1198.85 1403.18 1198.74 1410.5 L 1197.74 1409.65 C 1196.36 1406.49 1196.95 1377.89 1197 1372.55 z"/>
<path transform="translate(0,0)" fill="rgb(39,72,248)" d="M 1638.8 1334.96 L 1697.82 1334.96 C 1697.05 1344.36 1697.59 1354.66 1697.85 1364.16 L 1638.28 1364.75 C 1638.88 1355.5 1638.71 1344.36 1638.8 1334.96 z"/>
<path transform="translate(0,0)" fill="rgb(4,4,5)" d="M 1747.61 1585.71 C 1752.1 1584.5 1756.9 1585.84 1760.12 1589.2 C 1763.34 1592.55 1764.48 1597.4 1763.09 1601.84 C 1761.7 1606.28 1758 1609.62 1753.44 1610.54 C 1746.69 1611.91 1740.07 1607.66 1738.49 1600.95 C 1736.91 1594.24 1740.95 1587.49 1747.61 1585.71 z M 1753.4 1606.37 C 1758 1604.78 1760.46 1599.79 1758.92 1595.18 C 1757.39 1590.56 1752.44 1588.04 1747.8 1589.51 C 1744.75 1590.48 1742.46 1593.02 1741.8 1596.15 C 1741.14 1599.28 1742.22 1602.53 1744.62 1604.65 C 1747.02 1606.76 1750.38 1607.42 1753.4 1606.37 z"/>
<path transform="translate(0,0)" fill="rgb(254,254,254)" fill-opacity="0.117647" d="M 428.972 923.896 C 430.47 919.643 430.322 920.28 433.304 918.6 C 437.623 918.46 438.945 919.523 443.013 921.441 C 454.814 926.885 464.859 927.841 477.588 929.7 C 478.356 929.812 479.929 932.169 480.284 932.804 C 477.001 937.591 464.553 948.617 458.058 945.63 C 448.152 941.074 438.099 936.013 434.172 925.14 C 433.372 922.924 433.756 923.513 431.657 922.667 L 430.323 924.914 L 428.972 923.896 z"/>
<path transform="translate(0,0)" fill="rgb(254,254,254)" fill-opacity="0.956863" d="M 1450.8 953.765 C 1457.54 965.731 1450.46 964.437 1454.49 973.782 C 1455.02 981.297 1455.06 988.838 1454.61 996.357 L 1454.91 999.675 L 1456.11 1000.54 C 1461.75 999.182 1463.73 995.829 1467.82 996.179 C 1469.32 1000.07 1468.34 1002.84 1466.62 1006.77 C 1466.22 1007.66 1465.82 1008.55 1465.4 1009.43 L 1462.55 1008.92 L 1460.69 1005.36 L 1459.35 1005.44 C 1456.13 1013.22 1454.84 1022.04 1458.83 1029.75 C 1454.55 1031.63 1454.42 1031.76 1451.21 1035.1 L 1449.94 1034.37 C 1452.92 1022.84 1449.72 974.481 1449.96 957.696 L 1450.8 953.765 z"/>
<path transform="translate(0,0)" fill="rgb(254,254,254)" fill-opacity="0.462745" d="M 1457.86 946.332 C 1461.93 944.408 1460.93 943.736 1460.81 939.788 L 1461.95 938.825 C 1464.63 939.586 1463.23 939.574 1466.26 937.914 C 1467.5 948.19 1469.06 961.955 1469.5 972.321 L 1468.82 974.27 C 1467.13 972.026 1465.65 969.672 1464.11 967.323 L 1462.84 967.674 L 1463.34 970.251 C 1456.52 974.661 1457.85 969.03 1454.54 972.107 L 1454.49 973.782 C 1450.46 964.437 1457.54 965.731 1450.8 953.765 L 1452.05 951.039 C 1455.27 949.313 1455.75 949.376 1457.86 946.332 z"/>
<path transform="translate(0,0)" fill="rgb(254,254,254)" fill-opacity="0.764706" d="M 1402.21 953.852 C 1400.65 953.087 1399.12 952.275 1397.62 951.418 L 1398.14 949.35 C 1400.06 948.876 1409.76 948.91 1413.47 948.234 C 1417.98 947.411 1426.06 945.464 1430.4 945.378 C 1431.8 945.351 1439.19 950.705 1440.68 950.645 C 1452.51 950.166 1447.11 947.018 1451.47 942.713 C 1453.92 943.733 1455.6 944.935 1457.86 946.332 C 1455.75 949.376 1455.27 949.313 1452.05 951.039 L 1450.8 953.765 L 1449.96 957.696 L 1448.78 954.783 C 1444.06 952.515 1410.38 953.98 1402.21 953.852 z"/>
<path transform="translate(0,0)" fill="rgb(254,254,254)" fill-opacity="0.72549" d="M 1463.34 970.251 L 1462.84 967.674 L 1464.11 967.323 C 1465.65 969.672 1467.13 972.026 1468.82 974.27 L 1469.5 972.321 C 1470.75 985.554 1471.93 998.793 1473.04 1012.04 L 1471.74 1015.01 L 1469.84 1015.02 C 1466.9 1012.66 1467.05 1012.62 1465.4 1009.43 C 1465.82 1008.55 1466.22 1007.66 1466.62 1006.77 C 1468.34 1002.84 1469.32 1000.07 1467.82 996.179 C 1463.73 995.829 1461.75 999.182 1456.11 1000.54 L 1454.91 999.675 L 1454.61 996.357 L 1462.88 989.79 C 1462.91 983.145 1464.61 976.018 1463.34 970.251 z"/>
<path transform="translate(0,0)" fill="url(#Gradient1)" d="M 1458.83 1029.75 C 1454.84 1022.04 1456.13 1013.22 1459.35 1005.44 L 1460.69 1005.36 L 1462.55 1008.92 C 1465.68 1015.71 1465.33 1027.68 1469.58 1031.68 C 1473.14 1030.07 1473.09 1026.41 1473.72 1022.78 L 1474.65 1029.97 C 1473.47 1031.27 1472.41 1032.36 1471.16 1033.6 C 1468.4 1033.47 1463.9 1030.78 1459.9 1029.96 L 1458.83 1029.75 z"/>
<path transform="translate(0,0)" fill="rgb(254,254,254)" fill-opacity="0.623529" d="M 1450.49 767.659 C 1451.55 776.79 1453.89 795.601 1454 804.365 L 1452.42 800.916 C 1450.64 803.028 1449.99 808.283 1449.78 811.146 L 1449.33 811.191 C 1448.78 810.37 1445.8 805.94 1445.97 805.276 C 1448.13 796.609 1449.29 790.994 1449.64 782.042 C 1445.89 785.191 1441.99 789.821 1438.13 789.802 L 1440.47 781.278 L 1440.82 783.737 L 1442.16 783.695 C 1445.85 780.003 1449.64 772.827 1450.49 767.659 z"/>
<path transform="translate(0,0)" fill="rgb(254,254,254)" fill-opacity="0.0509804" d="M 1202.29 701.775 C 1210.63 704.787 1207.92 715.651 1209.94 724.7 L 1207.38 727.222 C 1200.19 727.985 1199.29 721.686 1198.34 715.915 C 1198.79 712.49 1201.19 705.393 1202.29 701.775 z"/>
<path transform="translate(0,0)" fill="rgb(254,254,254)" fill-opacity="0.819608" d="M 1399.12 877.824 L 1403.03 877.572 C 1403.71 880.585 1404.03 881.326 1404.15 884.441 L 1402.82 885.531 L 1402.64 882.925 C 1396.8 884.801 1387.11 900.495 1378.85 898.096 C 1378.08 895.803 1378.27 895.807 1378.63 893.361 C 1387.05 888.417 1391.9 884.242 1399.12 877.824 z"/>
<path transform="translate(0,0)" fill="rgb(254,254,254)" fill-opacity="0.25098" d="M 1454.49 973.782 L 1454.54 972.107 C 1457.85 969.03 1456.52 974.661 1463.34 970.251 C 1464.61 976.018 1462.91 983.145 1462.88 989.79 L 1454.61 996.357 C 1455.06 988.838 1455.02 981.297 1454.49 973.782 z"/>
<path transform="translate(0,0)" fill="rgb(254,254,254)" fill-opacity="0.027451" d="M 1448.58 745.092 C 1448.91 753.587 1449.35 759.257 1450.49 767.659 C 1449.64 772.827 1445.85 780.003 1442.16 783.695 L 1440.82 783.737 L 1440.47 781.278 C 1443.39 771.447 1446.34 755.619 1448.58 745.092 z"/>
<path transform="translate(0,0)" fill="rgb(254,254,254)" fill-opacity="0.803922" d="M 1438.13 789.802 C 1441.99 789.821 1445.89 785.191 1449.64 782.042 C 1449.29 790.994 1448.13 796.609 1445.97 805.276 C 1445.8 805.94 1448.78 810.37 1449.33 811.191 C 1438.81 806.182 1445.79 801.159 1438.03 791.555 L 1438.13 789.802 z"/>
<path transform="translate(0,0)" fill="rgb(254,254,254)" fill-opacity="0.913725" d="M 1462.55 1008.92 L 1465.4 1009.43 C 1467.05 1012.62 1466.9 1012.66 1469.84 1015.02 L 1471.74 1015.01 L 1473.04 1012.04 C 1473.23 1014.73 1473.8 1020.32 1473.72 1022.78 C 1473.09 1026.41 1473.14 1030.07 1469.58 1031.68 C 1465.33 1027.68 1465.68 1015.71 1462.55 1008.92 z"/>
<path transform="translate(0,0)" fill="rgb(254,254,254)" fill-opacity="0.027451" d="M 1317 1083.44 C 1318.07 1089.32 1323.26 1117.1 1321.65 1121.01 C 1318.26 1115.34 1316.46 1095.91 1315.71 1088.45 L 1317 1083.44 z"/>
<path transform="translate(0,0)" fill="rgb(254,254,254)" fill-opacity="0.12549" d="M 1312.67 1066.63 C 1305.79 1061.35 1302.38 1058.7 1296.44 1052.51 C 1302.7 1057.42 1309.36 1060.49 1315.21 1065.81 L 1317 1083.44 L 1315.71 1088.45 C 1314.78 1081.2 1313.69 1073.88 1312.67 1066.63 z"/>
<path transform="translate(0,0)" fill="rgb(55,54,54)" fill-opacity="0.788235" d="M 1192.83 1442.25 C 1191.31 1433.74 1190.74 1387.11 1192.82 1379.39 C 1193.12 1396.09 1192.41 1416.15 1193.16 1432.32 L 1192.83 1442.25 z"/>
<path transform="translate(0,0)" fill="rgb(254,254,254)" fill-opacity="0.266667" d="M 1449.78 811.146 C 1449.99 808.283 1450.64 803.028 1452.42 800.916 L 1454 804.365 C 1454.61 810.444 1455.16 816.529 1455.65 822.62 L 1454 821.947 C 1452.76 818.331 1451.22 814.698 1449.78 811.146 z"/>
<path transform="translate(0,0)" fill="rgb(254,254,254)" fill-opacity="0.384314" d="M 1344.21 1170.13 L 1346.1 1171.16 C 1347.16 1175.15 1347.11 1175.76 1347.16 1179.95 C 1347.2 1184.11 1347.61 1193.06 1346.71 1196.7 C 1345.56 1192.83 1345.51 1191.55 1345.14 1187.46 C 1344.62 1181.7 1344.3 1175.92 1344.21 1170.13 z"/>
<path transform="translate(0,0)" fill="rgb(254,254,254)" fill-opacity="0.615686" d="M 1347.16 1179.95 C 1348.11 1184.95 1349.25 1208.6 1347 1212.23 L 1346.02 1211.38 C 1345.41 1202.75 1345.06 1196.09 1345.14 1187.46 C 1345.51 1191.55 1345.56 1192.83 1346.71 1196.7 C 1347.61 1193.06 1347.2 1184.11 1347.16 1179.95 z"/>
<path transform="translate(0,0)" fill="rgb(40,46,194)" fill-opacity="0.847059" d="M 1320.04 1147.6 C 1320.33 1143.47 1320.43 1138.34 1321.63 1134.48 C 1323.55 1137.22 1323.35 1138.9 1323.97 1142.44 C 1322.47 1146.47 1321.78 1145.08 1320.04 1147.6 z"/>
<path transform="translate(0,0)" fill="rgb(215,221,249)" d="M 1253.3 804.053 L 1256.01 803.424 C 1256.07 808.255 1255.54 813.511 1255.19 818.365 L 1253.3 804.053 z"/>
<path transform="translate(0,0)" fill="rgb(4,4,5)" d="M 349.064 865.385 C 345.807 863.508 341.407 861.068 338.697 858.567 C 331.658 851.966 327.715 842.712 327.831 833.062 C 327.829 822.873 332.084 813.148 339.569 806.235 C 346.222 800.202 355.033 797.117 363.996 797.682 C 376.627 798.391 383.842 804.746 391.671 813.699 C 388.087 814.625 385.534 815.926 383.068 818.866 L 379.781 823.086 C 369.322 832.781 364.043 852.907 371.103 865.907 L 364.644 866.996 C 359.484 866.846 354.204 866.036 349.064 865.385 z"/>
<path transform="translate(0,0)" fill="rgb(39,72,248)" d="M 766.723 930.722 C 770.952 931.002 770.644 931.244 772.906 934.503 C 772.986 936.303 773.337 938.785 771.402 939.951 C 754.499 950.107 740.173 963.456 737.358 984.112 C 736.046 993.734 739.802 1000.46 733.241 1007.75 C 728.808 1006.59 730.487 1007.72 727.618 1004.88 C 725.276 998.682 726.648 983.228 728.428 976.535 C 734.669 953.07 747.12 942.599 766.723 930.722 z"/>
<path transform="translate(0,0)" fill="rgb(39,72,248)" d="M 783.818 955.932 C 786.06 957.393 785.423 957.115 787.091 959.518 C 787.639 966.981 774.229 971.275 770.007 977.37 C 762.351 988.418 772.828 998.383 758.874 1003.93 C 758.544 1003.76 757.078 1002.42 756.741 1002.13 C 750.399 983.288 766.021 962.06 783.818 955.932 z"/>
<path transform="translate(0,0)" fill="rgb(40,46,194)" fill-opacity="0.980392" d="M 391.671 813.699 L 394.316 814.151 C 379.242 830.497 373.85 844.469 372.45 866.988 L 371.103 865.907 C 364.043 852.907 369.322 832.781 379.781 823.086 C 378.203 825.737 377.855 826.058 376.992 829.094 L 378.308 829.104 C 381.538 826.477 386.25 822.093 386.759 817.854 L 383.068 818.866 C 385.534 815.926 388.087 814.625 391.671 813.699 z"/>
<path transform="translate(0,0)" fill="rgb(40,46,194)" fill-opacity="0.133333" d="M 383.068 818.866 L 386.759 817.854 C 386.25 822.093 381.538 826.477 378.308 829.104 L 376.992 829.094 C 377.855 826.058 378.203 825.737 379.781 823.086 L 383.068 818.866 z"/>
</svg>